<?xml version="1.0" encoding="UTF-8" standalone="no"?>
<svg width="24px" height="24px" viewBox="0 0 24 24" version="1.1" xmlns="http://www.w3.org/2000/svg" xmlns:xlink="http://www.w3.org/1999/xlink">
    <!-- Generator: Sketch 39.1 (31720) - http://www.bohemiancoding.com/sketch -->
    <title>ico-instagram</title>
    <desc>Created with Sketch.</desc>
    <defs></defs>
    <g id="Page-1" stroke="none" stroke-width="1" fill="none" fill-rule="evenodd">
        <g id="ico-instagram" fill="#000000">
            <path d="M12,0 C8.7405,0 8.3325,0.015 7.053,0.072 C5.775,0.132 4.905,0.333 4.14,0.63 C3.351,0.936 2.6805,1.347 2.0145,2.0145 C1.347,2.6805 0.9345,3.3495 0.63,4.14 C0.333,4.905 0.1305,5.775 0.072,7.053 C0.012,8.3325 0,8.7405 0,12 C0,15.2595 0.015,15.6675 0.072,16.947 C0.132,18.225 0.333,19.0965 0.63,19.86 C0.936,20.649 1.347,21.3195 2.0145,21.9855 C2.6805,22.653 3.3495,23.0655 4.14,23.37 C4.905,23.667 5.775,23.8695 7.053,23.928 C8.3325,23.988 8.7405,24 12,24 C15.2595,24 15.6675,23.985 16.947,23.928 C18.225,23.868 19.0965,23.667 19.86,23.37 C20.649,23.064 21.3195,22.653 21.9855,21.9855 C22.653,21.3195 23.0655,20.6505 23.37,19.86 C23.667,19.095 23.8695,18.225 23.928,16.947 C23.988,15.6675 24,15.2595 24,12 C24,8.7405 23.985,8.3325 23.928,7.053 C23.868,5.775 23.667,4.9035 23.37,4.14 C23.064,3.351 22.653,2.6805 21.9855,2.0145 C21.3195,1.347 20.6505,0.9345 19.86,0.63 C19.095,0.333 18.225,0.1305 16.947,0.072 C15.6675,0.012 15.2595,0 12,0 L12,0 Z M12,2.16 C15.204,2.16 15.585,2.175 16.8495,2.232 C18.0195,2.286 18.654,2.481 19.077,2.646 C19.638,2.8635 20.037,3.123 20.457,3.543 C20.877,3.963 21.1365,4.362 21.354,4.923 C21.519,5.346 21.714,5.9805 21.768,7.1505 C21.825,8.4165 21.8385,8.796 21.8385,12 C21.8385,15.204 21.8235,15.585 21.7665,16.8495 C21.7125,18.0195 21.5175,18.654 21.3525,19.077 C21.135,19.638 20.8755,20.037 20.4555,20.457 C20.0355,20.877 19.6365,21.1365 19.0755,21.354 C18.6525,21.519 18.018,21.714 16.848,21.768 C15.582,21.825 15.2025,21.8385 11.9985,21.8385 C8.7945,21.8385 8.4135,21.8235 7.149,21.7665 C5.979,21.7125 5.3445,21.5175 4.9215,21.3525 C4.3605,21.135 3.9615,20.8755 3.5415,20.4555 C3.1215,20.0355 2.862,19.6365 2.6445,19.0755 C2.4795,18.6525 2.2845,18.018 2.2305,16.848 C2.175,15.585 2.16,15.204 2.16,12 C2.16,8.796 2.175,8.415 2.232,7.1505 C2.286,5.9805 2.481,5.346 2.646,4.923 C2.8635,4.362 3.123,3.963 3.543,3.543 C3.963,3.123 4.362,2.8635 4.923,2.646 C5.346,2.481 5.9805,2.286 7.1505,2.232 C8.415,2.175 8.796,2.16 12,2.16 L12,2.16 Z M12,5.838 C8.595,5.838 5.838,8.598 5.838,12 C5.838,15.405 8.598,18.162 12,18.162 C15.405,18.162 18.162,15.402 18.162,12 C18.162,8.595 15.402,5.838 12,5.838 L12,5.838 Z M12,16.0005 C9.7905,16.0005 7.9995,14.2095 7.9995,12 C7.9995,9.7905 9.7905,7.9995 12,7.9995 C14.2095,7.9995 16.0005,9.7905 16.0005,12 C16.0005,14.2095 14.2095,16.0005 12,16.0005 L12,16.0005 Z M19.845,5.595 C19.845,6.39 19.2,7.035 18.405,7.035 C17.61,7.035 16.965,6.39 16.965,5.595 C16.965,4.8 17.61,4.155 18.405,4.155 C19.2,4.155 19.845,4.8 19.845,5.595 L19.845,5.595 Z" id="Shape"></path>
        </g>
    </g>
</svg>