<?xml version="1.0" encoding="UTF-8" standalone="no"?>
<svg width="110px" height="447px" viewBox="0 0 110 447" version="1.1" xmlns="http://www.w3.org/2000/svg" xmlns:xlink="http://www.w3.org/1999/xlink">
    <!-- Generator: Sketch 39.1 (31720) - http://www.bohemiancoding.com/sketch -->
    <title>ico-bracket-right</title>
    <desc>Created with Sketch.</desc>
    <defs></defs>
    <g id="Page-1" stroke="none" stroke-width="1" fill="none" fill-rule="evenodd">
        <g id="ico-bracket-right" fill="#004FFF">
            <path d="M75.4609317,223.461745 C85.7858725,213.930523 90.5967546,198.846495 90.4229096,179.324531 L90.1714073,139.181635 L90.275152,139.181635 L89.9741353,57.9280519 C89.7580006,53.174205 94.9703842,47.1176212 99.3237305,47.1176212 L110,47.1176212 L110,9.19954491 C100.449989,3.56538518 86.4334555,0 69.7910817,0 C34.9265856,0 19.1817604,20.7421248 19.4937803,55.7804669 L19.7570717,134.790317 L19.6407519,134.790317 L19.9417687,177.176946 C20.1586893,181.930793 14.9455198,187.987377 10.5921734,187.987377 L0,187.987377 L0,223.557138 L0,259.012623 L10.6762695,259.012623 C15.0296158,259.012623 20.2419994,265.069995 20.0258647,269.823842 L19.724848,351.076638 L19.8285927,351.076638 L19.5770904,391.219533 C19.2650705,426.257875 35.0106817,447 69.8743918,447 C86.5167656,447 100.449989,443.54889 110,437.91473 L110,399.882379 L99.4078266,399.882379 C95.0544802,399.882379 89.8413107,393.825795 90.0582313,389.071948 L90.3592481,346.685319 L90.2429283,346.685319 L90.5062197,267.675469 C90.6805334,248.10087 85.8434493,232.988416 75.4609317,223.461745 L75.4609317,223.461745 Z" id="Combined-Shape"></path>
        </g>
    </g>
</svg>