<?xml version="1.0" encoding="UTF-8" standalone="no"?>
<svg width="24px" height="24px" viewBox="0 0 24 24" version="1.1" xmlns="http://www.w3.org/2000/svg" xmlns:xlink="http://www.w3.org/1999/xlink">
    <!-- Generator: Sketch 39.1 (31720) - http://www.bohemiancoding.com/sketch -->
    <title>ico-twitter</title>
    <desc>Created with Sketch.</desc>
    <defs></defs>
    <g id="Page-1" stroke="none" stroke-width="1" fill="none" fill-rule="evenodd">
        <g id="ico-twitter" fill="#000000">
            <path d="M23.9985,4.31 C23.1135,4.7 22.1685,4.9655 21.171,5.0855 C22.1865,4.475 22.968,3.5105 23.3355,2.3615 C22.3845,2.924 21.33,3.3335 20.208,3.554 C19.311,2.597 18.033,2 16.614,2 C13.896,2 11.691,4.202 11.691,6.92 C11.691,7.307 11.736,7.685 11.8185,8.045 C7.7265,7.838 4.098,5.879 1.6695,2.903 C1.2435,3.6275 1.0035,4.4735 1.0035,5.378 C1.0035,7.088 1.8735,8.5925 3.1935,9.476 C2.3865,9.4505 1.626,9.2285 0.963,8.861 L0.963,8.921 C0.963,11.306 2.658,13.298 4.9125,13.751 C4.4985,13.862 4.0635,13.922 3.615,13.922 C3.3,13.922 2.991,13.892 2.6895,13.835 C3.3165,15.791 5.1345,17.2145 7.29,17.255 C5.604,18.575 3.48,19.361 1.1745,19.361 C0.777,19.361 0.3855,19.3385 0,19.2935 C2.1795,20.6885 4.767,21.5045 7.548,21.5045 C16.605,21.5045 21.558,14.0045 21.558,7.4975 C21.558,7.283 21.552,7.0715 21.543,6.86 C22.503,6.1655 23.34,5.3 24,4.31 L23.9985,4.31 Z" id="Shape"></path>
        </g>
    </g>
</svg>