<?xml version="1.0" encoding="UTF-8" standalone="no"?>
<svg width="24px" height="24px" viewBox="0 0 24 24" version="1.1" xmlns="http://www.w3.org/2000/svg" xmlns:xlink="http://www.w3.org/1999/xlink">
    <!-- Generator: Sketch 39.1 (31720) - http://www.bohemiancoding.com/sketch -->
    <title>ico-youtube</title>
    <desc>Created with Sketch.</desc>
    <defs></defs>
    <g id="Page-1" stroke="none" stroke-width="1" fill="none" fill-rule="evenodd">
        <g id="ico-youtube" fill="#000000">
            <path d="M0,11.5315 C0,9.5905 0.24,7.6465 0.24,7.6465 C0.24,7.6465 0.474,5.9965 1.194,5.266 C2.106,4.3105 3.306,4.3405 3.84,4.24 C5.76,4.054 12,4 12,4 C12,4 17.043,4.006 20.4,4.249 C20.871,4.306 21.894,4.309 22.806,5.266 C23.526,5.995 23.76,7.648 23.76,7.648 C23.76,7.648 24,9.589 24,11.533 L24,13.42 C24,15.364 23.76,17.305 23.76,17.305 C23.76,17.305 23.526,18.958 22.806,19.687 C21.894,20.644 20.871,20.647 20.4,20.704 C17.043,20.947 12,20.953 12,20.953 C12,20.953 5.76,20.8975 3.84,20.713 C3.306,20.6125 2.106,20.6425 1.194,19.687 C0.474,18.9565 0.24,17.3065 0.24,17.3065 C0.24,17.3065 0,15.364 0,13.4215 L0,11.5315 L0,11.5315 Z M9.522,15.6265 L9.522,8.884 L16.0065,12.2665 L9.5265,15.6265 L9.5235,15.6265 L9.522,15.6265 Z" id="Shape"></path>
        </g>
    </g>
</svg>