<?xml version="1.0" encoding="UTF-8" standalone="no"?>
<svg width="283px" viewBox="0 0 283 66" version="1.1" xmlns="http://www.w3.org/2000/svg" xmlns:xlink="http://www.w3.org/1999/xlink">
    <!-- Generator: Sketch 39.1 (31720) - http://www.bohemiancoding.com/sketch -->
    <title>logo-luisvillares</title>
    <desc>Created with Sketch.</desc>
    <defs></defs>
    <g id="Page-1" stroke="none" stroke-width="1" fill="none" fill-rule="evenodd">
        <g id="logo-luisvillares" fill="#000000">
            <polygon id="Fill-8" points="99.3006993 6.95104895 111.563856 6.95104895 118.123023 34.0516309 124.68219 6.95104895 136.945347 6.95104895 124.511087 47.7473279 111.734959 47.7473279"></polygon>
            <path d="M138.027972,47.7473279 L148.579763,47.7473279 L148.579763,18.6072761 L138.027972,18.6072761 L138.027972,47.7473279 Z M138.027972,15.6929612 L148.579763,15.6929612 L148.579763,6.95104895 L138.027972,6.95104895 L138.027972,15.6929612 Z" id="Fill-9"></path>
            <polygon id="Fill-10" points="152.923077 47.9196339 163.475205 47.9196339 163.475205 5.95804196 152.923077 5.95804196"></polygon>
            <polygon id="Fill-11" points="166.825175 47.9196339 177.376966 47.9196339 177.376966 5.95804196 166.825175 5.95804196"></polygon>
            <path d="M194.939781,39.5542473 C194.939781,37.980765 193.741724,37.1066082 192.087955,37.1066082 C190.319667,37.1066082 189.29305,38.097434 189.29305,39.5542473 C189.29305,41.0110606 190.319667,42.0018864 192.087955,42.0018864 C193.741724,42.0018864 194.939781,41.0110606 194.939781,39.5542473 M204.978601,29.4718465 L204.978601,47.830172 L194.939781,47.830172 L194.939781,46.1400208 C193.399855,47.6553407 191.631568,48.6461664 188.494458,48.6461664 C182.904986,48.6461664 178.741259,45.6155267 178.741259,39.5542473 C178.741259,33.493312 183.133011,30.4626723 188.72282,30.4626723 C191.631568,30.4626723 193.456777,31.2201601 194.939781,32.1528235 L194.939781,29.4718465 C194.939781,28.1898646 194.36955,27.1408764 192.544341,27.1408764 C190.719132,27.1408764 190.148564,28.1898646 190.148564,29.1803462 L180.110082,29.1803462 C180.110082,21.604091 186.270121,17.8741259 192.544341,17.8741259 C198.818561,17.8741259 204.978601,21.604091 204.978601,29.4718465" id="Fill-12"></path>
            <path d="M20.1874416,38.9010106 C18.9489669,38.9010106 18.2446833,37.6475936 18.2888063,36.6639951 L18.3497701,27.8924854 L18.3261929,27.8924854 L18.3797468,11.5426556 C18.4430683,4.29231644 15.245668,0 8.1654456,0 C4.78582752,0 1.93939017,0.737870947 0,1.90387224 L0,9.75029002 L2.16808866,9.75029002 C3.61741062,9.75029002 4.11051017,11.003707 4.06672401,11.9873055 L4.00542338,28.801402 L4.02664283,28.801402 L3.97578352,37.1083008 C3.91212518,44.3589842 7.10986228,48.6513006 14.1900847,48.6513006 C17.5697028,48.6513006 20.3989625,47.9371765 22.3383526,46.7711752 L22.3383526,38.9010106 L20.1874416,38.9010106 L20.1874416,38.9010106 Z" id="Fill-1"></path>
            <polygon id="Fill-3" points="3.97202797 65.9920407 283.341889 65.9920407 283.341889 53.6223776 3.97202797 53.6223776"></polygon>
            <path d="M51.06218,18.8671329 L51.06218,48.0071846 L40.5103885,48.0071846 L40.5103885,45.8507017 C39.0273849,47.6575219 36.8030479,48.823179 33.9508846,48.823179 C28.6466963,48.823179 24.8251748,44.7435511 24.8251748,37.4584522 L24.8251748,18.8671329 L35.3769663,18.8671329 L35.3769663,36.0012947 C35.3769663,37.4584522 36.1755585,38.4489338 37.7724061,38.4489338 C39.7687183,38.4489338 40.5103885,36.9921205 40.5103885,35.3019692 L40.5103885,18.8671329 L51.06218,18.8671329 Z" id="Fill-5"></path>
            <path d="M55.6083916,47.7473279 L66.1605199,47.7473279 L66.1605199,18.6072761 L55.6083916,18.6072761 L55.6083916,47.7473279 Z M55.6083916,15.6933054 L57.8899875,6.95104895 L69.8678605,6.95104895 L65.5330305,15.6933054 L55.6083916,15.6933054 Z" id="Fill-6"></path>
            <path d="M93.6140266,39.0882598 C93.6140266,46.1985274 87.4539872,48.6461664 81.0659229,48.6461664 C74.6775219,48.6461664 68.5174825,46.0818584 68.5174825,38.2141029 L79.0696108,38.2141029 C79.0696108,39.9624166 79.7540222,40.7199044 81.0659229,40.7199044 C82.3778237,40.7199044 83.0618983,40.1957545 83.0618983,39.2049287 C83.0618983,35.5916325 68.6889222,38.8549218 68.6889222,27.4323767 C68.6889222,20.6136094 74.8486247,17.8741259 80.9517421,17.8741259 C87.0545227,17.8741259 92.9865372,21.0214346 92.9865372,28.1898646 L82.7769514,28.1898646 C82.7769514,26.5578758 82.09254,25.8003879 80.9517421,25.8003879 C79.925125,25.8003879 79.1265328,26.324882 79.1265328,27.3157078 C79.1265328,31.1623419 93.6140266,27.3157078 93.6140266,39.0882598" id="Fill-7"></path>
            <path d="M225.505271,17.8741259 L225.505271,29.5300089 C221.969033,28.9473524 218.090253,30.4041657 218.090253,35.5909442 L218.090253,47.5968341 L207.538462,47.5968341 L207.538462,18.4567824 L218.090253,18.4567824 L218.090253,23.0609043 C219.059948,19.6224395 221.969033,17.8741259 225.505271,17.8741259" id="Fill-13"></path>
            <path d="M246.254872,29.9963406 C245.627383,27.3738702 243.916354,26.4997133 241.805861,26.4997133 C239.524602,26.4997133 237.642134,27.5487015 236.843879,29.9963406 L246.254872,29.9963406 Z M242.205326,40.7199044 C243.745251,40.7199044 245.170996,40.0787414 245.570461,39.262747 L255.095635,39.262747 C253.213167,46.0233519 247.623358,48.6461664 241.463656,48.6461664 C232.337946,48.6461664 226.405594,41.943724 226.405594,33.2599741 C226.405594,24.5762242 232.565634,17.8741259 241.69168,17.8741259 C250.019472,17.8741259 256.06533,24.4598994 256.06533,33.1436493 C256.06533,34.3674688 255.951149,35.5327818 255.608607,36.9317768 L236.957386,36.9317768 C237.98434,39.7875852 240.209014,40.7199044 242.205326,40.7199044 L242.205326,40.7199044 Z" id="Fill-14"></path>
            <path d="M282.285355,39.0882598 C282.285355,46.1985274 276.125316,48.6461664 269.736915,48.6461664 C263.348851,48.6461664 257.188811,46.0818584 257.188811,38.2141029 L267.740603,38.2141029 C267.740603,39.9624166 268.425351,40.7199044 269.736915,40.7199044 C271.049152,40.7199044 271.733564,40.1957545 271.733564,39.2049287 C271.733564,35.5916325 257.359914,38.8549218 257.359914,27.4323767 C257.359914,20.6136094 263.519953,17.8741259 269.623071,17.8741259 C275.725851,17.8741259 281.657866,21.0214346 281.657866,28.1898646 L271.44828,28.1898646 C271.44828,26.5578758 270.763869,25.8003879 269.623071,25.8003879 C268.596117,25.8003879 267.797861,26.324882 267.797861,27.3157078 C267.797861,31.1623419 282.285355,27.3157078 282.285355,39.0882598" id="Fill-15"></path>
        </g>
    </g>
</svg>