<?xml version="1.0" encoding="UTF-8" standalone="no"?>
<svg width="283px" height="58px" viewBox="0 0 283 58" version="1.1" xmlns="http://www.w3.org/2000/svg" xmlns:xlink="http://www.w3.org/1999/xlink">
    <!-- Generator: Sketch 39.1 (31720) - http://www.bohemiancoding.com/sketch -->
    <title>logo-enmarea</title>
    <desc>Created with Sketch.</desc>
    <defs></defs>
    <g id="Page-1" stroke="none" stroke-width="1" fill="none" fill-rule="evenodd">
        <g id="logo-enmarea" fill="#000000">
            <path d="M24.9567042,46.1439245 C23.4889859,46.1439245 22.6529577,44.656717 22.7056901,43.4901509 L22.7781972,33.0862642 L22.7496338,33.0862642 L22.8133521,13.691283 C22.8891549,5.09086792 19.0979155,0 10.7057746,0 C6.69921127,0 2.29935211,1.71045283 0,3.09260377 L1.02498592,11.5649811 L3.59569014,11.5649811 C5.31388732,11.5649811 5.89833803,13.0521887 5.84560563,14.2187547 L5.77419718,34.1641887 L5.7983662,34.1641887 L5.73904225,44.0176226 C5.66323944,52.6180377 9.45338028,57.71 17.8466197,57.71 C21.8531831,57.71 26.6430423,56.0269057 28.9423944,54.6447547 L27.5065352,46.1439245 L24.9567042,46.1439245 Z" id="Fill-1"></path>
            <path d="M49.278862,46.1439245 C47.8111437,46.1439245 46.9751155,44.656717 47.0278479,43.4901509 L47.1003549,33.0862642 L47.0717915,33.0862642 L47.1355099,13.691283 C47.2113127,5.09086792 43.4200732,0 35.0279324,0 C31.021369,0 26.6204113,1.71045283 24.3221577,3.09260377 L25.3471437,11.5649811 L27.9178479,11.5649811 C29.6360451,11.5649811 30.2204958,13.0521887 30.1677634,14.2187547 L30.0963549,34.1641887 L30.1205239,34.1641887 L30.0601014,44.0176226 C29.9853972,52.6180377 33.775538,57.71 42.1687775,57.71 C46.1753408,57.71 50.9652,56.0269057 53.2645521,54.6447547 L51.828693,46.1439245 L49.278862,46.1439245 Z" id="Fill-3"></path>
            <path d="M73.8572113,46.1439245 C72.389493,46.1439245 71.5534648,44.656717 71.6061972,43.4901509 L71.6787042,33.0862642 L71.6501408,33.0862642 L71.7138592,13.691283 C71.789662,5.09086792 67.9984225,0 59.6062817,0 C55.5997183,0 51.1998592,1.71045283 48.900507,3.09260377 L49.925493,11.5649811 L52.4961972,11.5649811 C54.2143944,11.5649811 54.7988451,13.0521887 54.7461127,14.2187547 L54.6747042,34.1641887 L54.6988732,34.1641887 L54.6395493,44.0176226 C54.5637465,52.6180377 58.3538873,57.71 66.7471268,57.71 C70.7536901,57.71 75.5435493,56.0269057 77.8429014,54.6447547 L76.4070423,46.1439245 L73.8572113,46.1439245 Z" id="Fill-5"></path>
            <path d="M269.5843,34.8214 L271.9933,24.3134 C271.5783,24.2304 271.1213,24.1474 270.6223,24.1474 C267.4243,24.1474 265.6803,27.6364 265.6803,32.2044 C265.6803,34.1154 266.8013,34.9874 268.5463,34.9874 C268.8783,34.9874 269.2523,34.9464 269.5843,34.8214 M269.6263,37.5214 C268.1303,39.3484 265.8873,40.7604 262.9803,40.7604 C259.1593,40.7604 256.5013,38.1024 256.5013,32.9104 C256.5013,28.7154 257.9543,24.1054 260.8203,21.1984 C263.0223,18.9134 265.6803,18.0004 268.1723,18.0004 C270.8303,18.0004 272.8243,18.9134 274.1113,20.6584 C275.3163,19.2464 276.6453,18.4154 277.9323,18.4154 L282.4603,18.4154 L278.8463,34.1984 C278.7223,34.6134 279.0953,35.2364 279.4693,35.2364 L280.5493,35.2364 L279.5943,39.5974 C278.3063,40.3044 276.5203,40.7194 274.5273,40.7194 C271.5783,40.7194 270.0823,39.3904 269.6263,37.5214 M243.3343,28.0514 C246.8643,27.7194 248.6913,26.8884 248.6913,25.0194 C248.6913,24.0224 248.2353,23.2744 247.0723,23.2744 C245.1613,23.2744 243.9153,25.3514 243.3343,28.0514 M234.2793,32.0384 C234.2793,23.5654 240.1353,18.0004 248.1103,18.0004 C253.8833,18.0004 256.8323,20.8244 256.8323,24.5624 C256.8323,30.6264 251.2253,32.1634 242.9603,32.2874 C243.0433,34.4064 243.9153,35.3614 245.6603,35.3614 C247.6953,35.3614 249.0653,34.4064 249.8963,33.4504 L254.5063,33.4504 L253.1773,39.0994 C251.4333,39.9714 248.4843,40.7604 245.1613,40.7604 C237.0203,40.7604 234.2793,36.8984 234.2793,32.0384 M216.1693,39.1824 L219.4503,24.8944 C219.5333,24.5204 219.2433,23.8564 218.8273,23.8564 L217.5403,23.8564 L218.5783,19.2464 C220.2813,18.6644 221.9013,18.1664 224.8503,18.1664 C227.3003,18.1664 228.7543,19.6194 228.8793,22.0704 C230.2493,19.7444 232.2013,18.2494 235.0263,18.2494 C235.4003,18.2494 235.9403,18.2904 236.3133,18.4154 L234.6103,25.7254 L233.5313,25.7254 C230.9973,25.7254 229.1283,26.5564 228.0063,27.2624 L224.9743,40.3454 L216.9173,40.3454 C216.3773,40.3454 216.0453,39.7224 216.1693,39.1824 M203.9573,34.8214 L206.3663,24.3134 C205.9513,24.2304 205.4943,24.1474 204.9953,24.1474 C201.7973,24.1474 200.0533,27.6364 200.0533,32.2044 C200.0533,34.1154 201.1743,34.9874 202.9193,34.9874 C203.2513,34.9874 203.6253,34.9464 203.9573,34.8214 M203.9993,37.5214 C202.5033,39.3484 200.2613,40.7604 197.3533,40.7604 C193.5323,40.7604 190.8743,38.1024 190.8743,32.9104 C190.8743,28.7154 192.3273,24.1054 195.1933,21.1984 C197.3953,18.9134 200.0533,18.0004 202.5453,18.0004 C205.2033,18.0004 207.1973,18.9134 208.4843,20.6584 C209.6893,19.2464 211.0183,18.4154 212.3053,18.4154 L216.8333,18.4154 L213.2193,34.1984 C213.0953,34.6134 213.4683,35.2364 213.8423,35.2364 L214.9223,35.2364 L213.9673,39.5974 C212.6793,40.3044 210.8933,40.7194 208.9003,40.7194 C205.9513,40.7194 204.4553,39.3904 203.9993,37.5214 M178.4123,35.0704 L180.2813,27.0134 C180.5723,25.7674 180.4053,25.0194 178.7443,25.0194 C178.3703,25.0194 177.7063,25.1854 177.1243,25.3934 L173.6353,40.3454 L165.6193,40.3454 C165.0383,40.3454 164.7053,39.7224 164.8303,39.1824 L167.6543,27.0134 C167.9453,25.7674 167.7373,25.0194 166.1183,25.0194 C165.6613,25.0194 165.0383,25.1444 164.4563,25.3514 L161.0093,40.3454 L152.9513,40.3454 C152.4113,40.3454 152.0793,39.7224 152.2043,39.1824 L155.4853,24.8944 C155.5683,24.5204 155.2773,23.8564 154.8623,23.8564 L153.5743,23.8564 L154.6133,19.2464 C156.3163,18.6644 157.9353,18.1664 160.8843,18.1664 C163.5013,18.1664 165.0793,19.5364 165.0793,21.9454 C167.2393,19.7444 169.7733,18.0004 173.0123,18.0004 C175.7543,18.0004 177.4573,19.4534 177.5813,22.1124 C179.7413,19.8274 182.3583,18.0004 185.6393,18.0004 C189.0863,18.0004 190.9553,20.1594 190.0833,23.9394 L187.6743,34.1984 C187.5913,34.6134 187.9653,35.2364 188.3393,35.2364 L189.4183,35.2364 L188.4223,39.5974 C187.1763,40.3044 185.2653,40.7194 182.9813,40.7194 C179.1183,40.7194 177.5403,38.9334 178.4123,35.0704 M134.1353,35.0704 L136.0043,27.0964 C136.2953,25.8084 135.9213,25.1024 134.2183,25.1024 C133.7623,25.1024 133.0553,25.2274 132.3913,25.4344 L128.9443,40.3454 L120.8863,40.3454 C120.3463,40.3454 120.0143,39.7224 120.1383,39.1824 L123.4193,24.8944 C123.5033,24.5204 123.2123,23.8564 122.7963,23.8564 L121.5093,23.8564 L122.5473,19.2464 C124.2503,18.6644 125.8703,18.1664 128.8193,18.1664 C131.4773,18.1664 133.0553,19.5784 133.0143,22.0704 C135.2573,19.9104 138.1643,18.0004 141.3623,18.0004 C144.8103,18.0004 146.6373,20.1594 145.7653,23.9394 L143.3983,34.1984 C143.3143,34.6134 143.6473,35.2364 144.0623,35.2364 L145.1423,35.2364 L144.1453,39.5974 C142.8583,40.3044 140.9473,40.7194 138.6633,40.7194 C134.8003,40.7194 133.2223,38.9334 134.1353,35.0704 M107.0543,28.0514 C110.5853,27.7194 112.4123,26.8884 112.4123,25.0194 C112.4123,24.0224 111.9553,23.2744 110.7923,23.2744 C108.8823,23.2744 107.6363,25.3514 107.0543,28.0514 M98.0003,32.0384 C98.0003,23.5654 103.8563,18.0004 111.8313,18.0004 C117.6043,18.0004 120.5533,20.8244 120.5533,24.5624 C120.5533,30.6264 114.9463,32.1634 106.6803,32.2874 C106.7633,34.4064 107.6363,35.3614 109.3803,35.3614 C111.4153,35.3614 112.7863,34.4064 113.6173,33.4504 L118.2273,33.4504 L116.8983,39.0994 C115.1533,39.9714 112.2043,40.7604 108.8823,40.7604 C100.7413,40.7604 98.0003,36.8984 98.0003,32.0384" id="Fill-1"></path>
        </g>
    </g>
</svg>