<?xml version="1.0" encoding="UTF-8" standalone="no"?>
<svg width="79px" height="58px" viewBox="0 0 79 58" version="1.1" xmlns="http://www.w3.org/2000/svg" xmlns:xlink="http://www.w3.org/1999/xlink">
    <!-- Generator: Sketch 39.1 (31720) - http://www.bohemiancoding.com/sketch -->
    <title>logo-enmarea-simbolo</title>
    <desc>Created with Sketch.</desc>
    <defs></defs>
    <g id="Page-1" stroke="none" stroke-width="1" fill="none" fill-rule="evenodd">
        <g id="logo-enmarea-simbolo" fill="#000000">
            <path d="M24.9567042,46.1439245 C23.4889859,46.1439245 22.6529577,44.656717 22.7056901,43.4901509 L22.7781972,33.0862642 L22.7496338,33.0862642 L22.8133521,13.691283 C22.8891549,5.09086792 19.0979155,0 10.7057746,0 C6.69921127,0 2.29935211,1.71045283 0,3.09260377 L1.02498592,11.5649811 L3.59569014,11.5649811 C5.31388732,11.5649811 5.89833803,13.0521887 5.84560563,14.2187547 L5.77419718,34.1641887 L5.7983662,34.1641887 L5.73904225,44.0176226 C5.66323944,52.6180377 9.45338028,57.71 17.8466197,57.71 C21.8531831,57.71 26.6430423,56.0269057 28.9423944,54.6447547 L27.5065352,46.1439245 L24.9567042,46.1439245 Z" id="Fill-1"></path>
            <path d="M49.278862,46.1439245 C47.8111437,46.1439245 46.9751155,44.656717 47.0278479,43.4901509 L47.1003549,33.0862642 L47.0717915,33.0862642 L47.1355099,13.691283 C47.2113127,5.09086792 43.4200732,0 35.0279324,0 C31.021369,0 26.6204113,1.71045283 24.3221577,3.09260377 L25.3471437,11.5649811 L27.9178479,11.5649811 C29.6360451,11.5649811 30.2204958,13.0521887 30.1677634,14.2187547 L30.0963549,34.1641887 L30.1205239,34.1641887 L30.0601014,44.0176226 C29.9853972,52.6180377 33.775538,57.71 42.1687775,57.71 C46.1753408,57.71 50.9652,56.0269057 53.2645521,54.6447547 L51.828693,46.1439245 L49.278862,46.1439245 Z" id="Fill-3"></path>
            <path d="M73.8572113,46.1439245 C72.389493,46.1439245 71.5534648,44.656717 71.6061972,43.4901509 L71.6787042,33.0862642 L71.6501408,33.0862642 L71.7138592,13.691283 C71.789662,5.09086792 67.9984225,0 59.6062817,0 C55.5997183,0 51.1998592,1.71045283 48.900507,3.09260377 L49.925493,11.5649811 L52.4961972,11.5649811 C54.2143944,11.5649811 54.7988451,13.0521887 54.7461127,14.2187547 L54.6747042,34.1641887 L54.6988732,34.1641887 L54.6395493,44.0176226 C54.5637465,52.6180377 58.3538873,57.71 66.7471268,57.71 C70.7536901,57.71 75.5435493,56.0269057 77.8429014,54.6447547 L76.4070423,46.1439245 L73.8572113,46.1439245 Z" id="Fill-5"></path>
        </g>
    </g>
</svg>