<?xml version="1.0" encoding="UTF-8" standalone="no"?>
<svg width="228px" height="58px" viewBox="0 0 228 58" version="1.1" xmlns="http://www.w3.org/2000/svg" xmlns:xlink="http://www.w3.org/1999/xlink">
    <!-- Generator: Sketch 39.1 (31720) - http://www.bohemiancoding.com/sketch -->
    <title>logo-enmarea</title>
    <desc>Created with Sketch.</desc>
    <defs></defs>
    <g id="Page-1" stroke="none" stroke-width="1" fill="none" fill-rule="evenodd">
        <g id="logo-enmarea" fill="#000000">
            <path d="M24.9567042,46.1439245 C23.4889859,46.1439245 22.6529577,44.656717 22.7056901,43.4901509 L22.7781972,33.0862642 L22.7496338,33.0862642 L22.8133521,13.691283 C22.8891549,5.09086792 19.0979155,0 10.7057746,0 C6.69921127,0 2.29935211,1.71045283 0,3.09260377 L1.02498592,11.5649811 L3.59569014,11.5649811 C5.31388732,11.5649811 5.89833803,13.0521887 5.84560563,14.2187547 L5.77419718,34.1641887 L5.7983662,34.1641887 L5.73904225,44.0176226 C5.66323944,52.6180377 9.45338028,57.71 17.8466197,57.71 C21.8531831,57.71 26.6430423,56.0269057 28.9423944,54.6447547 L27.5065352,46.1439245 L24.9567042,46.1439245 Z" id="Fill-1"></path>
            <path d="M49.278862,46.1439245 C47.8111437,46.1439245 46.9751155,44.656717 47.0278479,43.4901509 L47.1003549,33.0862642 L47.0717915,33.0862642 L47.1355099,13.691283 C47.2113127,5.09086792 43.4200732,0 35.0279324,0 C31.021369,0 26.6204113,1.71045283 24.3221577,3.09260377 L25.3471437,11.5649811 L27.9178479,11.5649811 C29.6360451,11.5649811 30.2204958,13.0521887 30.1677634,14.2187547 L30.0963549,34.1641887 L30.1205239,34.1641887 L30.0601014,44.0176226 C29.9853972,52.6180377 33.775538,57.71 42.1687775,57.71 C46.1753408,57.71 50.9652,56.0269057 53.2645521,54.6447547 L51.828693,46.1439245 L49.278862,46.1439245 Z" id="Fill-3"></path>
            <path d="M73.8572113,46.1439245 C72.389493,46.1439245 71.5534648,44.656717 71.6061972,43.4901509 L71.6787042,33.0862642 L71.6501408,33.0862642 L71.7138592,13.691283 C71.789662,5.09086792 67.9984225,0 59.6062817,0 C55.5997183,0 51.1998592,1.71045283 48.900507,3.09260377 L49.925493,11.5649811 L52.4961972,11.5649811 C54.2143944,11.5649811 54.7988451,13.0521887 54.7461127,14.2187547 L54.6747042,34.1641887 L54.6988732,34.1641887 L54.6395493,44.0176226 C54.5637465,52.6180377 58.3538873,57.71 66.7471268,57.71 C70.7536901,57.71 75.5435493,56.0269057 77.8429014,54.6447547 L76.4070423,46.1439245 L73.8572113,46.1439245 Z" id="Fill-5"></path>
            <path d="M215.5843,46.8214 L217.9933,36.3134 C217.5783,36.2304 217.1213,36.1474 216.6223,36.1474 C213.4243,36.1474 211.6803,39.6364 211.6803,44.2044 C211.6803,46.1154 212.8013,46.9874 214.5463,46.9874 C214.8783,46.9874 215.2523,46.9464 215.5843,46.8214 M215.6263,49.5214 C214.1303,51.3484 211.8873,52.7604 208.9803,52.7604 C205.1593,52.7604 202.5013,50.1024 202.5013,44.9104 C202.5013,40.7154 203.9543,36.1054 206.8203,33.1984 C209.0223,30.9134 211.6803,30.0004 214.1723,30.0004 C216.8303,30.0004 218.8243,30.9134 220.1113,32.6584 C221.3163,31.2464 222.6453,30.4154 223.9323,30.4154 L228.4603,30.4154 L224.8463,46.1984 C224.7223,46.6134 225.0953,47.2364 225.4693,47.2364 L226.5493,47.2364 L225.5943,51.5974 C224.3063,52.3044 222.5203,52.7194 220.5273,52.7194 C217.5783,52.7194 216.0823,51.3904 215.6263,49.5214 M189.3343,40.0514 C192.8643,39.7194 194.6913,38.8884 194.6913,37.0194 C194.6913,36.0224 194.2353,35.2744 193.0723,35.2744 C191.1613,35.2744 189.9153,37.3514 189.3343,40.0514 M180.2793,44.0384 C180.2793,35.5654 186.1353,30.0004 194.1103,30.0004 C199.8833,30.0004 202.8323,32.8244 202.8323,36.5624 C202.8323,42.6264 197.2253,44.1634 188.9603,44.2874 C189.0433,46.4064 189.9153,47.3614 191.6603,47.3614 C193.6953,47.3614 195.0653,46.4064 195.8963,45.4504 L200.5063,45.4504 L199.1773,51.0994 C197.4333,51.9714 194.4843,52.7604 191.1613,52.7604 C183.0203,52.7604 180.2793,48.8984 180.2793,44.0384 M162.1693,51.1824 L165.4503,36.8944 C165.5333,36.5204 165.2433,35.8564 164.8273,35.8564 L163.5403,35.8564 L164.5783,31.2464 C166.2813,30.6644 167.9013,30.1664 170.8503,30.1664 C173.3003,30.1664 174.7543,31.6194 174.8793,34.0704 C176.2493,31.7444 178.2013,30.2494 181.0263,30.2494 C181.4003,30.2494 181.9403,30.2904 182.3133,30.4154 L180.6103,37.7254 L179.5313,37.7254 C176.9973,37.7254 175.1283,38.5564 174.0063,39.2624 L170.9743,52.3454 L162.9173,52.3454 C162.3773,52.3454 162.0453,51.7224 162.1693,51.1824 M149.9573,46.8214 L152.3663,36.3134 C151.9513,36.2304 151.4943,36.1474 150.9953,36.1474 C147.7973,36.1474 146.0533,39.6364 146.0533,44.2044 C146.0533,46.1154 147.1743,46.9874 148.9193,46.9874 C149.2513,46.9874 149.6253,46.9464 149.9573,46.8214 M149.9993,49.5214 C148.5033,51.3484 146.2613,52.7604 143.3533,52.7604 C139.5323,52.7604 136.8743,50.1024 136.8743,44.9104 C136.8743,40.7154 138.3273,36.1054 141.1933,33.1984 C143.3953,30.9134 146.0533,30.0004 148.5453,30.0004 C151.2033,30.0004 153.1973,30.9134 154.4843,32.6584 C155.6893,31.2464 157.0183,30.4154 158.3053,30.4154 L162.8333,30.4154 L159.2193,46.1984 C159.0953,46.6134 159.4683,47.2364 159.8423,47.2364 L160.9223,47.2364 L159.9673,51.5974 C158.6793,52.3044 156.8933,52.7194 154.9003,52.7194 C151.9513,52.7194 150.4553,51.3904 149.9993,49.5214 M124.4123,47.0704 L126.2813,39.0134 C126.5723,37.7674 126.4053,37.0194 124.7443,37.0194 C124.3703,37.0194 123.7063,37.1854 123.1243,37.3934 L119.6353,52.3454 L111.6193,52.3454 C111.0383,52.3454 110.7053,51.7224 110.8303,51.1824 L113.6543,39.0134 C113.9453,37.7674 113.7373,37.0194 112.1183,37.0194 C111.6613,37.0194 111.0383,37.1444 110.4563,37.3514 L107.0093,52.3454 L98.9513,52.3454 C98.4113,52.3454 98.0793,51.7224 98.2043,51.1824 L101.4853,36.8944 C101.5683,36.5204 101.2773,35.8564 100.8623,35.8564 L99.5743,35.8564 L100.6133,31.2464 C102.3163,30.6644 103.9353,30.1664 106.8843,30.1664 C109.5013,30.1664 111.0793,31.5364 111.0793,33.9454 C113.2393,31.7444 115.7733,30.0004 119.0123,30.0004 C121.7543,30.0004 123.4573,31.4534 123.5813,34.1124 C125.7413,31.8274 128.3583,30.0004 131.6393,30.0004 C135.0863,30.0004 136.9553,32.1594 136.0833,35.9394 L133.6743,46.1984 C133.5913,46.6134 133.9653,47.2364 134.3393,47.2364 L135.4183,47.2364 L134.4223,51.5974 C133.1763,52.3044 131.2653,52.7194 128.9813,52.7194 C125.1183,52.7194 123.5403,50.9334 124.4123,47.0704 M134.1353,23.0704 L136.0043,15.0964 C136.2953,13.8084 135.9213,13.1024 134.2183,13.1024 C133.7623,13.1024 133.0553,13.2274 132.3913,13.4344 L128.9443,28.3454 L120.8863,28.3454 C120.3463,28.3454 120.0143,27.7224 120.1383,27.1824 L123.4193,12.8944 C123.5033,12.5204 123.2123,11.8564 122.7963,11.8564 L121.5093,11.8564 L122.5473,7.2464 C124.2503,6.6644 125.8703,6.1664 128.8193,6.1664 C131.4773,6.1664 133.0553,7.5784 133.0143,10.0704 C135.2573,7.9104 138.1643,6.0004 141.3623,6.0004 C144.8103,6.0004 146.6373,8.1594 145.7653,11.9394 L143.3983,22.1984 C143.3143,22.6134 143.6473,23.2364 144.0623,23.2364 L145.1423,23.2364 L144.1453,27.5974 C142.8583,28.3044 140.9473,28.7194 138.6633,28.7194 C134.8003,28.7194 133.2223,26.9334 134.1353,23.0704 M107.0543,16.0514 C110.5853,15.7194 112.4123,14.8884 112.4123,13.0194 C112.4123,12.0224 111.9553,11.2744 110.7923,11.2744 C108.8823,11.2744 107.6363,13.3514 107.0543,16.0514 M98.0003,20.0384 C98.0003,11.5654 103.8563,6.0004 111.8313,6.0004 C117.6043,6.0004 120.5533,8.8244 120.5533,12.5624 C120.5533,18.6264 114.9463,20.1634 106.6803,20.2874 C106.7633,22.4064 107.6363,23.3614 109.3803,23.3614 C111.4153,23.3614 112.7863,22.4064 113.6173,21.4504 L118.2273,21.4504 L116.8983,27.0994 C115.1533,27.9714 112.2043,28.7604 108.8823,28.7604 C100.7413,28.7604 98.0003,24.8984 98.0003,20.0384" id="Fill-1"></path>
        </g>
    </g>
</svg>