<?xml version="1.0" encoding="UTF-8" standalone="no"?>
<svg width="190px" height="153px" viewBox="0 0 190 153" version="1.1" xmlns="http://www.w3.org/2000/svg" xmlns:xlink="http://www.w3.org/1999/xlink">
    <!-- Generator: Sketch 39.1 (31720) - http://www.bohemiancoding.com/sketch -->
    <title>program-cidadania</title>
    <desc>Created with Sketch.</desc>
    <defs></defs>
    <g id="Page-1" stroke="none" stroke-width="1" fill="none" fill-rule="evenodd">
        <g id="program-cidadania">
            <polygon class="is-green" id="Fill-1" fill="#00CCCC" points="78 130.667 189.667 130.667 189.667 0 78 0"></polygon>
            <path d="M134.748,68.925 C132.684,68.925 130.619,68.799 128.64,68.588 C123.12,73.475 116.548,76.929 109.26,78.783 C107.743,79.205 106.1,79.5 104.457,79.71 C103.53,79.795 102.646,79.12 102.435,78.109 L102.435,78.067 C102.224,77.014 102.941,76.382 103.572,75.624 C106.227,72.633 109.26,70.105 111.24,63.069 C102.562,58.14 97,50.514 97,41.962 C97,27.091 113.894,15 134.748,15 C155.602,15 172.496,27.048 172.496,41.962 C172.496,56.876 155.602,68.925 134.748,68.925 L134.748,68.925 Z" id="Fill-2" fill="#FFFFFF"></path>
            <polygon class="is-blue" id="Fill-4" fill="#004EFF" points="143.278 95 78.149 95 78.149 72 0 72 0 95 0 107 0 118 0 130 0 153 93.419 153 93.419 130 143.278 130"></polygon>
            <path d="M8,93.579 L8,79 L14,79 L14,92.319 C14,93.909 14.75,94.659 16.1,94.659 C17.45,94.659 18.199,93.909 18.199,92.319 L18.199,79 L24.199,79 L24.199,93.579 C24.199,98.079 20.719,100.479 16.1,100.479 C11.48,100.479 8,98.079 8,93.579" id="Fill-6" fill="#FFFFFF"></path>
            <path d="M39.799,90.85 L39.799,100.42 L34.249,100.42 L34.249,91.6 C34.249,90.85 33.829,90.34 32.989,90.34 C31.939,90.34 31.549,91.09 31.549,91.96 L31.549,100.42 L26,100.42 L26,85.42 L31.549,85.42 L31.549,86.53 C32.33,85.6 33.499,85 34.999,85 C37.789,85 39.799,87.1 39.799,90.85" id="Fill-8" fill="#FFFFFF"></path>
            <path d="M55.8,90.429 L55.8,99.999 L50.25,99.999 L50.25,91.179 C50.25,90.429 49.83,89.919 48.99,89.919 C47.94,89.919 47.55,90.669 47.55,91.539 L47.55,99.999 L42,99.999 L42,79 L47.55,79 L47.55,86.109 C48.33,85.179 49.5,84.579 51,84.579 C53.79,84.579 55.8,86.679 55.8,90.429" id="Fill-10" fill="#FFFFFF"></path>
            <path d="M66.52,96.16 C66.52,95.35 65.89,94.9 65.02,94.9 C64.09,94.9 63.55,95.41 63.55,96.16 C63.55,96.91 64.09,97.42 65.02,97.42 C65.89,97.42 66.52,96.91 66.52,96.16 M71.8,90.97 L71.8,100.42 L66.52,100.42 L66.52,99.55 C65.71,100.33 64.78,100.84 63.13,100.84 C60.19,100.84 58,99.28 58,96.16 C58,93.04 60.31,91.48 63.25,91.48 C64.78,91.48 65.74,91.87 66.52,92.35 L66.52,90.97 C66.52,90.31 66.22,89.77 65.26,89.77 C64.3,89.77 64,90.31 64,90.82 L58.72,90.82 C58.72,86.92 61.96,85 65.26,85 C68.56,85 71.8,86.92 71.8,90.97" id="Fill-12" fill="#FFFFFF"></path>
            <path d="M15.01,123.839 C10.42,123.839 7,120.419 7,115.92 C7,111.42 10.42,108 15.01,108 C19.03,108 22.36,110.819 22.78,114.719 L17.05,114.719 C16.81,113.88 16,113.339 15.01,113.339 C13.6,113.339 12.55,114.42 12.55,115.92 C12.55,117.419 13.6,118.499 15.01,118.499 C16,118.499 16.84,117.959 17.08,117.119 L22.78,117.119 C22.36,121.019 19.06,123.839 15.01,123.839" id="Fill-14" fill="#FFFFFF"></path>
            <path d="M24,122.999 L29.55,122.999 L29.55,107.999 L24,107.999 L24,122.999 Z M24,106.5 L29.55,106.5 L29.55,102 L24,102 L24,106.5 Z" id="Fill-16" fill="#FFFFFF"></path>
            <path d="M42.889,115.5 C42.889,113.91 41.839,112.8 40.219,112.8 C38.599,112.8 37.549,113.91 37.549,115.5 C37.549,117.09 38.599,118.2 40.219,118.2 C41.839,118.2 42.889,117.09 42.889,115.5 L42.889,115.5 Z M48.439,102 L48.439,123 L42.889,123 L42.889,122.189 C41.989,122.97 40.759,123.419 39.169,123.419 C35.089,123.419 32,120.03 32,115.5 C32,110.97 35.089,107.58 39.169,107.58 C40.759,107.58 41.989,108.03 42.889,108.81 L42.889,102 L48.439,102 Z" id="Fill-18" fill="#FFFFFF"></path>
            <path d="M58.52,119.16 C58.52,118.35 57.89,117.9 57.02,117.9 C56.09,117.9 55.55,118.41 55.55,119.16 C55.55,119.91 56.09,120.42 57.02,120.42 C57.89,120.42 58.52,119.91 58.52,119.16 M63.8,113.97 L63.8,123.42 L58.52,123.42 L58.52,122.55 C57.71,123.33 56.78,123.84 55.13,123.84 C52.19,123.84 50,122.28 50,119.16 C50,116.04 52.31,114.48 55.25,114.48 C56.78,114.48 57.74,114.87 58.52,115.35 L58.52,113.97 C58.52,113.31 58.22,112.77 57.26,112.77 C56.3,112.77 56,113.31 56,113.82 L50.72,113.82 C50.72,109.92 53.96,108 57.26,108 C60.56,108 63.8,109.92 63.8,113.97" id="Fill-19" fill="#FFFFFF"></path>
            <path d="M75.889,115.5 C75.889,113.91 74.839,112.8 73.219,112.8 C71.599,112.8 70.549,113.91 70.549,115.5 C70.549,117.09 71.599,118.2 73.219,118.2 C74.839,118.2 75.889,117.09 75.889,115.5 L75.889,115.5 Z M81.439,102 L81.439,123 L75.889,123 L75.889,122.189 C74.989,122.97 73.759,123.419 72.169,123.419 C68.089,123.419 65,120.03 65,115.5 C65,110.97 68.089,107.58 72.169,107.58 C73.759,107.58 74.989,108.03 75.889,108.81 L75.889,102 L81.439,102 Z" id="Fill-20" fill="#FFFFFF"></path>
            <path d="M91.52,119.16 C91.52,118.35 90.89,117.9 90.02,117.9 C89.09,117.9 88.55,118.41 88.55,119.16 C88.55,119.91 89.09,120.42 90.02,120.42 C90.89,120.42 91.52,119.91 91.52,119.16 M96.8,113.97 L96.8,123.42 L91.52,123.42 L91.52,122.55 C90.71,123.33 89.78,123.84 88.13,123.84 C85.19,123.84 83,122.28 83,119.16 C83,116.04 85.31,114.48 88.25,114.48 C89.78,114.48 90.74,114.87 91.52,115.35 L91.52,113.97 C91.52,113.31 91.22,112.77 90.26,112.77 C89.3,112.77 89,113.31 89,113.82 L83.72,113.82 C83.72,109.92 86.96,108 90.26,108 C93.56,108 96.8,109.92 96.8,113.97" id="Fill-21" fill="#FFFFFF"></path>
            <path d="M112.8,113.85 L112.8,123.42 L107.25,123.42 L107.25,114.6 C107.25,113.85 106.83,113.34 105.99,113.34 C104.94,113.34 104.55,114.09 104.55,114.96 L104.55,123.42 L99,123.42 L99,108.42 L104.55,108.42 L104.55,109.53 C105.33,108.6 106.5,108 108,108 C110.79,108 112.8,110.1 112.8,113.85" id="Fill-22" fill="#FFFFFF"></path>
            <path d="M115,122.999 L120.55,122.999 L120.55,107.999 L115,107.999 L115,122.999 Z M115,106.499 L116.2,102 L122.499,102 L120.219,106.499 L115,106.499 Z" id="Fill-23" fill="#FFFFFF"></path>
            <path d="M131.52,119.16 C131.52,118.35 130.89,117.9 130.02,117.9 C129.09,117.9 128.55,118.41 128.55,119.16 C128.55,119.91 129.09,120.42 130.02,120.42 C130.89,120.42 131.52,119.91 131.52,119.16 M136.8,113.97 L136.8,123.42 L131.52,123.42 L131.52,122.55 C130.71,123.33 129.78,123.84 128.13,123.84 C125.19,123.84 123,122.28 123,119.16 C123,116.04 125.31,114.48 128.25,114.48 C129.78,114.48 130.74,114.87 131.52,115.35 L131.52,113.97 C131.52,113.31 131.22,112.77 130.26,112.77 C129.3,112.77 129,113.31 129,113.82 L123.72,113.82 C123.72,109.92 126.96,108 130.26,108 C133.56,108 136.8,109.92 136.8,113.97" id="Fill-24" fill="#FFFFFF"></path>
            <path d="M15.52,142.16 C15.52,141.35 14.89,140.9 14.02,140.9 C13.09,140.9 12.55,141.41 12.55,142.16 C12.55,142.91 13.09,143.42 14.02,143.42 C14.89,143.42 15.52,142.91 15.52,142.16 M20.8,136.97 L20.8,146.42 L15.52,146.42 L15.52,145.55 C14.71,146.33 13.78,146.84 12.13,146.84 C9.19,146.84 7,145.28 7,142.16 C7,139.04 9.31,137.48 12.25,137.48 C13.78,137.48 14.74,137.87 15.52,138.35 L15.52,136.97 C15.52,136.31 15.22,135.77 14.26,135.77 C13.3,135.77 13,136.31 13,136.82 L7.72,136.82 C7.72,132.92 10.96,131 14.26,131 C17.56,131 20.8,132.92 20.8,136.97" id="Fill-25" fill="#FFFFFF"></path>
            <path d="M30.01,146.839 C25.42,146.839 22,143.419 22,138.92 C22,134.42 25.42,131 30.01,131 C34.03,131 37.36,133.819 37.78,137.719 L32.05,137.719 C31.81,136.88 31,136.339 30.01,136.339 C28.6,136.339 27.55,137.42 27.55,138.92 C27.55,140.42 28.6,141.499 30.01,141.499 C31,141.499 31.84,140.959 32.08,140.119 L37.78,140.119 C37.36,144.019 34.06,146.839 30.01,146.839" id="Fill-26" fill="#FFFFFF"></path>
            <polygon id="Fill-27" fill="#FFFFFF" points="48.6 136.08 46.59 136.08 46.59 145.8 41.04 145.8 41.04 136.08 39 136.08 39 130.8 41.04 130.8 41.04 126 46.59 126 46.59 130.8 48.6 130.8"></polygon>
            <path d="M50,146 L55.55,146 L55.55,131 L50,131 L50,146 Z M50,129.5 L55.55,129.5 L55.55,125 L50,125 L50,129.5 Z" id="Fill-28" fill="#FFFFFF"></path>
            <polygon id="Fill-29" fill="#FFFFFF" points="73.799 131 68.249 146 62.999 146 62.549 146 57 131 62.85 131 65.399 138.74 67.949 131"></polygon>
            <path d="M81.52,142.16 C81.52,141.35 80.89,140.9 80.02,140.9 C79.09,140.9 78.55,141.41 78.55,142.16 C78.55,142.91 79.09,143.42 80.02,143.42 C80.89,143.42 81.52,142.91 81.52,142.16 M86.8,136.97 L86.8,146.42 L81.52,146.42 L81.52,145.55 C80.71,146.33 79.78,146.84 78.13,146.84 C75.19,146.84 73,145.28 73,142.16 C73,139.04 75.31,137.48 78.25,137.48 C79.78,137.48 80.74,137.87 81.52,138.35 L81.52,136.97 C81.52,136.31 81.22,135.77 80.26,135.77 C79.3,135.77 79,136.31 79,136.82 L73.72,136.82 C73.72,132.92 76.96,131 80.26,131 C83.56,131 86.8,132.92 86.8,136.97" id="Fill-30" fill="#FFFFFF"></path>
        </g>
    </g>
</svg>