<?xml version="1.0" encoding="UTF-8" standalone="no"?>
<svg width="245px" height="176px" viewBox="0 0 245 176" version="1.1" xmlns="http://www.w3.org/2000/svg" xmlns:xlink="http://www.w3.org/1999/xlink">
    <!-- Generator: Sketch 39.1 (31720) - http://www.bohemiancoding.com/sketch -->
    <title>program-territorio</title>
    <desc>Created with Sketch.</desc>
    <defs></defs>
    <g id="Page-1" stroke="none" stroke-width="1" fill="none" fill-rule="evenodd">
        <g id="program-territorio">
            <polygon id="Path" fill="#00CCCC" class="is-green" points="45.755 68 0 94.813 0 175.5 207.166 175.5 243.833 140.167 243.583 114.666 207.166 114.666 206.731 68"></polygon>
            <polygon id="Fill-3" fill="#004EFF" class="is-blue" points="0 94.428 0 117.428 0 129.428 0 140.428 0 152.428 0 175.428 207.328 175.428 207.328 140.428 160.978 140.428 160.978 94.428"></polygon>
            <path d="M23.0095,111.4285 C23.0095,108.5185 20.8495,106.3285 17.8795,106.3285 C14.9095,106.3285 12.7495,108.5185 12.7495,111.4285 C12.7495,114.3385 14.9095,116.5285 17.8795,116.5285 C20.8495,116.5285 23.0095,114.3385 23.0095,111.4285 L23.0095,111.4285 Z M6.7505,111.4285 C6.7505,105.2185 11.6695,100.4495 17.8795,100.4495 C24.0895,100.4495 29.0095,105.2185 29.0095,111.4285 C29.0095,117.6375 24.0895,122.4075 17.8795,122.4075 C11.6695,122.4075 6.7505,117.6375 6.7505,111.4285 L6.7505,111.4285 Z" id="Fill-4" fill="#FFFFFF"></path>
            <polygon id="Fill-6" fill="#FFFFFF" points="45.6594 112.2083 43.6494 112.2083 43.6494 121.9283 38.0994 121.9283 38.0994 112.2083 36.0594 112.2083 36.0594 106.9283 38.0994 106.9283 38.0994 102.1283 43.6494 102.1283 43.6494 106.9283 45.6594 106.9283"></polygon>
            <path d="M56.6692,112.7483 C56.3392,111.3983 55.4392,110.9483 54.3292,110.9483 C53.1292,110.9483 52.1392,111.4883 51.7192,112.7483 L56.6692,112.7483 Z M54.5392,118.2683 C55.3492,118.2683 56.0992,117.9383 56.3092,117.5183 L61.3192,117.5183 C60.3292,120.9983 57.3892,122.3483 54.1492,122.3483 C49.3492,122.3483 46.2302,118.8983 46.2302,114.4283 C46.2302,109.9583 49.4692,106.5083 54.2692,106.5083 C58.6492,106.5083 61.8292,109.8983 61.8292,114.3683 C61.8292,114.9983 61.7692,115.5983 61.5892,116.3183 L51.7792,116.3183 C52.3192,117.7883 53.4892,118.2683 54.5392,118.2683 L54.5392,118.2683 Z" id="Fill-8" fill="#FFFFFF"></path>
            <path d="M73.0193,106.6287 L73.0193,112.6287 C71.1593,112.3287 69.1193,113.0787 69.1193,115.7487 L69.1193,121.9277 L63.5693,121.9277 L63.5693,106.9287 L69.1193,106.9287 L69.1193,109.2987 C69.6293,107.5287 71.1593,106.6287 73.0193,106.6287" id="Fill-10" fill="#FFFFFF"></path>
            <path d="M83.8188,106.6287 L83.8188,112.6287 C81.9588,112.3287 79.9188,113.0787 79.9188,115.7487 L79.9188,121.9277 L74.3688,121.9277 L74.3688,106.9287 L79.9188,106.9287 L79.9188,109.2987 C80.4288,107.5287 81.9588,106.6287 83.8188,106.6287" id="Fill-12" fill="#FFFFFF"></path>
            <path d="M85.169,121.928 L90.719,121.928 L90.719,106.928 L85.169,106.928 L85.169,121.928 Z M85.169,105.429 L90.719,105.429 L90.719,100.929 L85.169,100.929 L85.169,105.429 Z" id="Fill-14" fill="#FFFFFF"></path>
            <polygon id="Fill-16" fill="#FFFFFF" points="101.8184 112.2083 99.8084 112.2083 99.8084 121.9283 94.2584 121.9283 94.2584 112.2083 92.2184 112.2083 92.2184 106.9283 94.2584 106.9283 94.2584 102.1283 99.8084 102.1283 99.8084 106.9283 101.8184 106.9283"></polygon>
            <path d="M112.9783,114.428 C112.9783,112.868 111.9283,111.788 110.4583,111.788 C108.9883,111.788 107.9383,112.868 107.9383,114.428 C107.9383,115.988 108.9883,117.068 110.4583,117.068 C111.9283,117.068 112.9783,115.988 112.9783,114.428 M102.3883,114.428 C102.3883,109.928 105.9583,106.509 110.4583,106.509 C114.9583,106.509 118.5283,109.928 118.5283,114.428 C118.5283,118.928 114.9583,122.348 110.4583,122.348 C106.0183,122.348 102.3883,118.928 102.3883,114.428" id="Fill-17" fill="#FFFFFF"></path>
            <path d="M129.718,106.6287 L129.718,112.6287 C127.858,112.3287 125.818,113.0787 125.818,115.7487 L125.818,121.9277 L120.268,121.9277 L120.268,106.9287 L125.818,106.9287 L125.818,109.2987 C126.328,107.5287 127.858,106.6287 129.718,106.6287" id="Fill-18" fill="#FFFFFF"></path>
            <path d="M131.068,121.928 L136.618,121.928 L136.618,106.928 L131.068,106.928 L131.068,121.928 Z M131.068,105.429 L136.618,105.429 L136.618,100.929 L131.068,100.929 L131.068,105.429 Z" id="Fill-19" fill="#FFFFFF"></path>
            <path d="M148.9475,114.428 C148.9475,112.868 147.8975,111.788 146.4275,111.788 C144.9575,111.788 143.9075,112.868 143.9075,114.428 C143.9075,115.988 144.9575,117.068 146.4275,117.068 C147.8975,117.068 148.9475,115.988 148.9475,114.428 M138.3575,114.428 C138.3575,109.928 141.9275,106.509 146.4275,106.509 C150.9275,106.509 154.4975,109.928 154.4975,114.428 C154.4975,118.928 150.9275,122.348 146.4275,122.348 C141.9875,122.348 138.3575,118.928 138.3575,114.428" id="Fill-20" fill="#FFFFFF"></path>
            <path d="M17.6399,137.138 C17.6399,135.668 16.5899,134.558 14.9699,134.558 C13.3499,134.558 12.2999,135.668 12.2999,137.138 C12.2999,138.608 13.3499,139.718 14.9699,139.718 C16.5899,139.718 17.6399,138.608 17.6399,137.138 L17.6399,137.138 Z M23.1899,129.938 L23.1899,144.488 C23.1899,149.468 19.1999,151.418 15.3299,151.418 C11.4599,151.418 7.4699,149.798 7.4699,145.118 L13.0199,145.118 C13.0199,146.228 14.1299,146.618 15.3299,146.618 C16.5299,146.618 17.6399,146.048 17.6399,144.488 L17.6399,143.558 C16.7399,144.308 15.5099,144.758 13.9199,144.758 C9.8399,144.758 6.7499,141.368 6.7499,137.138 C6.7499,132.909 9.8399,129.518 13.9199,129.518 C15.5099,129.518 16.7399,129.969 17.6399,130.719 L17.6399,129.938 L23.1899,129.938 Z" id="Fill-21" fill="#FFFFFF"></path>
            <path d="M33.5095,140.678 C33.5095,139.868 32.8795,139.418 32.0095,139.418 C31.0795,139.418 30.5395,139.928 30.5395,140.678 C30.5395,141.428 31.0795,141.938 32.0095,141.938 C32.8795,141.938 33.5095,141.428 33.5095,140.678 M38.7895,135.488 L38.7895,144.938 L33.5095,144.938 L33.5095,144.068 C32.6995,144.848 31.7695,145.358 30.1195,145.358 C27.1795,145.358 24.9895,143.798 24.9895,140.678 C24.9895,137.558 27.2995,135.998 30.2395,135.998 C31.7695,135.998 32.7295,136.388 33.5095,136.868 L33.5095,135.488 C33.5095,134.828 33.2095,134.288 32.2495,134.288 C31.2895,134.288 30.9895,134.828 30.9895,135.338 L25.7095,135.338 C25.7095,131.438 28.9495,129.518 32.2495,129.518 C35.5495,129.518 38.7895,131.438 38.7895,135.488" id="Fill-22" fill="#FFFFFF"></path>
            <polygon id="Fill-23" fill="#FFFFFF" points="41.04 144.938 46.59 144.938 46.59 123.339 41.04 123.339"></polygon>
            <path d="M58.7693,135.7581 C58.4393,134.4081 57.5393,133.9581 56.4293,133.9581 C55.2293,133.9581 54.2393,134.4981 53.8193,135.7581 L58.7693,135.7581 Z M56.6393,141.2781 C57.4493,141.2781 58.1993,140.9481 58.4093,140.5281 L63.4193,140.5281 C62.4293,144.0081 59.4893,145.3581 56.2493,145.3581 C51.4493,145.3581 48.3303,141.9081 48.3303,137.4381 C48.3303,132.9681 51.5693,129.5181 56.3693,129.5181 C60.7493,129.5181 63.9293,132.9081 63.9293,137.3781 C63.9293,138.0081 63.8693,138.6081 63.6893,139.3281 L53.8793,139.3281 C54.4193,140.7981 55.5893,141.2781 56.6393,141.2781 L56.6393,141.2781 Z" id="Fill-24" fill="#FFFFFF"></path>
            <path d="M76.1096,137.138 C76.1096,135.668 75.0596,134.558 73.4396,134.558 C71.8196,134.558 70.7696,135.668 70.7696,137.138 C70.7696,138.608 71.8196,139.718 73.4396,139.718 C75.0596,139.718 76.1096,138.608 76.1096,137.138 L76.1096,137.138 Z M81.6596,129.938 L81.6596,144.488 C81.6596,149.468 77.6696,151.418 73.7996,151.418 C69.9296,151.418 65.9396,149.798 65.9396,145.118 L71.4896,145.118 C71.4896,146.228 72.5996,146.618 73.7996,146.618 C74.9996,146.618 76.1096,146.048 76.1096,144.488 L76.1096,143.558 C75.2096,144.308 73.9796,144.758 72.3896,144.758 C68.3096,144.758 65.2196,141.368 65.2196,137.138 C65.2196,132.909 68.3096,129.518 72.3896,129.518 C73.9796,129.518 75.2096,129.969 76.1096,130.719 L76.1096,129.938 L81.6596,129.938 Z" id="Fill-25" fill="#FFFFFF"></path>
            <path d="M93.9893,137.4383 C93.9893,135.8783 92.9393,134.7983 91.4693,134.7983 C89.9993,134.7983 88.9493,135.8783 88.9493,137.4383 C88.9493,138.9983 89.9993,140.0783 91.4693,140.0783 C92.9393,140.0783 93.9893,138.9983 93.9893,137.4383 M83.3993,137.4383 C83.3993,132.9383 86.9693,129.5183 91.4693,129.5183 C95.9693,129.5183 99.5393,132.9383 99.5393,137.4383 C99.5393,141.9383 95.9693,145.3573 91.4693,145.3573 C87.0293,145.3573 83.3993,141.9383 83.3993,137.4383" id="Fill-26" fill="#FFFFFF"></path>
            <path d="M101.009,144.938 L107.009,144.938 L107.009,138.938 L101.009,138.938 L101.009,144.938 Z M101.009,135.938 L107.009,135.938 L107.009,129.938 L101.009,129.938 L101.009,135.938 Z" id="Fill-27" fill="#FFFFFF"></path>
            <path d="M17.1299,160.4485 C17.1299,158.8885 16.0799,157.8085 14.6099,157.8085 C13.1399,157.8085 12.0899,158.8885 12.0899,160.4485 C12.0899,162.0085 13.1399,163.0885 14.6099,163.0885 C16.0799,163.0885 17.1299,162.0085 17.1299,160.4485 M6.5399,160.4485 C6.5399,155.9485 10.1099,152.5285 14.6099,152.5285 C19.1099,152.5285 22.6799,155.9485 22.6799,160.4485 C22.6799,164.9485 19.1099,168.3675 14.6099,168.3675 C10.1699,168.3675 6.5399,164.9485 6.5399,160.4485" id="Fill-28" fill="#FFFFFF"></path>
            <path d="M44.219,158.3782 L44.219,167.9482 L38.669,167.9482 L38.669,159.1282 C38.669,158.3782 38.249,157.8682 37.409,157.8682 C36.359,157.8682 35.969,158.6182 35.969,159.4882 L35.969,167.9482 L30.42,167.9482 L30.42,152.9482 L35.969,152.9482 L35.969,154.0582 C36.75,153.1282 37.919,152.5282 39.419,152.5282 C42.209,152.5282 44.219,154.6282 44.219,158.3782" id="Fill-29" fill="#FFFFFF"></path>
            <path d="M56.3989,160.4485 C56.3989,158.8885 55.3489,157.8085 53.8789,157.8085 C52.4089,157.8085 51.3589,158.8885 51.3589,160.4485 C51.3589,162.0085 52.4089,163.0885 53.8789,163.0885 C55.3489,163.0885 56.3989,162.0085 56.3989,160.4485 M45.8089,160.4485 C45.8089,155.9485 49.3789,152.5285 53.8789,152.5285 C58.3789,152.5285 61.9489,155.9485 61.9489,160.4485 C61.9489,164.9485 58.3789,168.3675 53.8789,168.3675 C49.4389,168.3675 45.8089,164.9485 45.8089,160.4485" id="Fill-30" fill="#FFFFFF"></path>
            <path d="M76.1687,163.448 C76.1687,167.108 72.9287,168.368 69.5687,168.368 C66.2087,168.368 62.9687,167.048 62.9687,162.998 L68.5187,162.998 C68.5187,163.898 68.8787,164.288 69.5687,164.288 C70.2587,164.288 70.6187,164.018 70.6187,163.508 C70.6187,161.648 63.0587,163.328 63.0587,157.448 C63.0587,153.939 66.2987,152.529 69.5087,152.529 C72.7187,152.529 75.8387,154.149 75.8387,157.839 L70.4687,157.839 C70.4687,156.998 70.1087,156.609 69.5087,156.609 C68.9687,156.609 68.5487,156.879 68.5487,157.388 C68.5487,159.368 76.1687,157.388 76.1687,163.448" id="Fill-31" fill="#FFFFFF"></path>
            <path d="M87.5986,160.4485 C87.5986,158.8885 86.5486,157.8085 85.0786,157.8085 C83.6086,157.8085 82.5586,158.8885 82.5586,160.4485 C82.5586,162.0085 83.6086,163.0885 85.0786,163.0885 C86.5486,163.0885 87.5986,162.0085 87.5986,160.4485 M77.0086,160.4485 C77.0086,155.9485 80.5786,152.5285 85.0786,152.5285 C89.5786,152.5285 93.1486,155.9485 93.1486,160.4485 C93.1486,164.9485 89.5786,168.3675 85.0786,168.3675 C80.6386,168.3675 77.0086,164.9485 77.0086,160.4485" id="Fill-32" fill="#FFFFFF"></path>
            <polygon id="Fill-33" fill="#FFFFFF" points="109.5881 158.2283 107.5781 158.2283 107.5781 167.9483 102.0281 167.9483 102.0281 158.2283 99.9881 158.2283 99.9881 152.9483 102.0281 152.9483 102.0281 148.1483 107.5781 148.1483 107.5781 152.9483 109.5881 152.9483"></polygon>
            <path d="M120.5979,158.7683 C120.2679,157.4183 119.3679,156.9683 118.2579,156.9683 C117.0579,156.9683 116.0679,157.5083 115.6479,158.7683 L120.5979,158.7683 Z M118.4679,164.2883 C119.2779,164.2883 120.0279,163.9583 120.2379,163.5383 L125.2479,163.5383 C124.2579,167.0183 121.3179,168.3683 118.0779,168.3683 C113.2779,168.3683 110.1589,164.9183 110.1589,160.4483 C110.1589,155.9783 113.3979,152.5283 118.1979,152.5283 C122.5779,152.5283 125.7579,155.9183 125.7579,160.3883 C125.7579,161.0183 125.6979,161.6183 125.5179,162.3383 L115.7079,162.3383 C116.2479,163.8083 117.4179,164.2883 118.4679,164.2883 L118.4679,164.2883 Z" id="Fill-34" fill="#FFFFFF"></path>
            <path d="M140.0979,163.448 C140.0979,167.108 136.8579,168.368 133.4979,168.368 C130.1389,168.368 126.8989,167.048 126.8989,162.998 L132.4479,162.998 C132.4479,163.898 132.8079,164.288 133.4979,164.288 C134.1879,164.288 134.5479,164.018 134.5479,163.508 C134.5479,161.648 126.9889,163.328 126.9889,157.448 C126.9889,153.939 130.2289,152.529 133.4379,152.529 C136.6479,152.529 139.7679,154.149 139.7679,157.839 L134.3979,157.839 C134.3979,156.998 134.0379,156.609 133.4379,156.609 C132.8979,156.609 132.4779,156.879 132.4779,157.388 C132.4779,159.368 140.0979,157.388 140.0979,163.448" id="Fill-35" fill="#FFFFFF"></path>
            <path d="M151.5579,160.4485 C151.5579,158.8885 150.5079,157.8085 149.0379,157.8085 C147.5679,157.8085 146.5179,158.8885 146.5179,160.4485 C146.5179,162.0085 147.5679,163.0885 149.0379,163.0885 C150.5079,163.0885 151.5579,162.0085 151.5579,160.4485 M140.9679,160.4485 C140.9679,155.9485 144.5379,152.5285 149.0379,152.5285 C153.5379,152.5285 157.1079,155.9485 157.1079,160.4485 C157.1079,164.9485 153.5379,168.3675 149.0379,168.3675 C144.5979,168.3675 140.9679,164.9485 140.9679,160.4485" id="Fill-36" fill="#FFFFFF"></path>
            <path d="M172.4973,152.9485 L172.4973,167.9485 L166.9473,167.9485 L166.9473,166.8385 C166.1673,167.7675 164.9973,168.3675 163.4973,168.3675 C160.7073,168.3675 158.6983,166.2685 158.6983,162.5185 L158.6983,152.9485 L164.2473,152.9485 L164.2473,161.7685 C164.2473,162.5185 164.6673,163.0285 165.5073,163.0285 C166.5573,163.0285 166.9473,162.2785 166.9473,161.4085 L166.9473,152.9485 L172.4973,152.9485 Z" id="Fill-37" fill="#FFFFFF"></path>
            <path d="M184.3474,152.6487 L184.3474,158.6487 C182.4874,158.3487 180.4474,159.0987 180.4474,161.7687 L180.4474,167.9477 L174.8974,167.9477 L174.8974,152.9487 L180.4474,152.9487 L180.4474,155.3187 C180.9574,153.5487 182.4874,152.6487 184.3474,152.6487" id="Fill-38" fill="#FFFFFF"></path>
            <path d="M195.3269,160.4485 C195.3269,158.8885 194.2769,157.8085 192.8069,157.8085 C191.3369,157.8085 190.2869,158.8885 190.2869,160.4485 C190.2869,162.0085 191.3369,163.0885 192.8069,163.0885 C194.2769,163.0885 195.3269,162.0085 195.3269,160.4485 M184.7369,160.4485 C184.7369,155.9485 188.3069,152.5285 192.8069,152.5285 C197.3069,152.5285 200.8769,155.9485 200.8769,160.4485 C200.8769,164.9485 197.3069,168.3675 192.8069,168.3675 C188.3669,168.3675 184.7369,164.9485 184.7369,160.4485" id="Fill-39" fill="#FFFFFF"></path>
            <path d="M183.3563,57.5688 L139.6443,57.5688 C129.7213,57.5688 121.6453,49.4928 121.6453,39.5698 C121.6453,32.5788 125.7033,26.2318 132.0113,23.2978 C131.9703,22.6958 131.9303,22.1328 131.9303,21.5708 C131.9303,10.2008 141.1303,1.0008 152.5013,1.0008 C160.8573,1.0008 168.3703,6.0628 171.5443,13.7768 C173.3923,12.1698 175.7633,11.2858 178.2133,11.2858 C183.8783,11.2858 188.4993,15.9058 188.4993,21.5708 C188.4993,23.5398 187.9363,25.4678 186.8513,27.1148 C193.8423,28.7618 198.7843,34.9898 198.7843,42.1408 C198.7843,50.6588 191.8743,57.5688 183.3563,57.5688" id="Fill-40" fill="#00CCCC" class="is-green"></path>
            <path d="M106.4571,56.9388 L82.0121,56.9388 C76.4621,56.9388 71.9461,52.4228 71.9461,46.8728 C71.9461,42.9638 74.2151,39.4138 77.7431,37.7738 C77.7201,37.4368 77.6981,37.1218 77.6981,36.8078 C77.6981,30.4488 82.8431,25.3038 89.2021,25.3038 C93.8751,25.3038 98.0761,28.1348 99.8511,32.4488 C100.8851,31.5498 102.2111,31.0558 103.5811,31.0558 C106.7491,31.0558 109.3331,33.6398 109.3331,36.8078 C109.3331,37.9088 109.0181,38.9868 108.4121,39.9078 C112.3211,40.8288 115.0851,44.3118 115.0851,48.3108 C115.0851,53.0748 111.2201,56.9388 106.4571,56.9388" id="Fill-41" fill="#00CCCC" class="is-green"></path>
        </g>
    </g>
</svg>