<?xml version="1.0" encoding="UTF-8" standalone="no"?>
<svg width="254px" height="104px" viewBox="0 0 254 104" version="1.1" xmlns="http://www.w3.org/2000/svg" xmlns:xlink="http://www.w3.org/1999/xlink">
    <!-- Generator: Sketch 39.1 (31720) - http://www.bohemiancoding.com/sketch -->
    <title>program-todos</title>
    <desc>Created with Sketch.</desc>
    <defs></defs>
    <g id="Page-1" stroke="none" stroke-width="1" fill="none" fill-rule="evenodd">
        <g id="program-todos">
            <path d="M128.619,46.0002 L128.619,25.7565 L138.904,25.7565 L138.904,46.0002 L143.7233,46.0002 L144.047,46.0004225 L144.047,25.7565 L154.332,25.7565 L154.332,46.0074907 L159.474,46.0110245 L159.474,25.7565 L169.76,25.7565 L169.76,46.0180934 L174.902,46.0216271 L174.902,25.7565 L185.187,25.7565 L185.187,46.0286954 L200.4723,46.0392 L200.4723,0.0002 L254.3273,0.0002 L254.3273,103.9992 L235.351881,103.9992 C235.151631,85.4852758 220.081248,70.5397 201.5209,70.5397 C182.959559,70.5397 167.889169,85.4852758 167.688919,103.9992 L167.688919,103.9992 L118.4333,103.9992 L118.4333,68.9992 L118.4333,65.3152 L118.4333,46.0002 L128.619,46.0002 Z" id="Combined-Shape" fill="#00CCCC" class="is-green"></path>
            <polygon id="Path" fill="#00CCCC" class="is-green" points="123.476 21.6135 118.334 21.6135 118.334 15.4705 156.903 0.0435 195.473 15.4705 195.473 21.6135 190.33 21.6135"></polygon>
            <polygon id="Fill-15" class="is-blue" fill="#004FFF" points="154.229 65.3148 154.229 45.9998 128.939 45.9998 128.939 34.9998 128.939 -0.0002 0 -0.0002 0 22.9998 0 34.9998 0 45.9998 0 57.9998 0 68.9998 0 80.9998 0 103.9998 154.229 103.9998 154.229 68.9998"></polygon>
            <polygon id="Fill-16" fill="#FFFFFF" points="20.8496 12.3208 16.4996 12.3208 16.4996 27.4998 10.4996 27.4998 10.4996 12.3208 6.1506 12.3208 6.1506 6.5008 16.4996 6.5008 20.8496 6.5008"></polygon>
            <path d="M29.7598,20.0005 C29.7598,18.4405 28.7098,17.3605 27.2398,17.3605 C25.7698,17.3605 24.7198,18.4405 24.7198,20.0005 C24.7198,21.5605 25.7698,22.6405 27.2398,22.6405 C28.7098,22.6405 29.7598,21.5605 29.7598,20.0005 M19.1698,20.0005 C19.1698,15.5005 22.7398,12.0805 27.2398,12.0805 C31.7398,12.0805 35.3098,15.5005 35.3098,20.0005 C35.3098,24.5005 31.7398,27.9205 27.2398,27.9205 C22.7998,27.9205 19.1698,24.5005 19.1698,20.0005" id="Fill-17" fill="#FFFFFF"></path>
            <path d="M47.2793,20.0005 C47.2793,18.4105 46.2293,17.3005 44.6093,17.3005 C42.9893,17.3005 41.9393,18.4105 41.9393,20.0005 C41.9393,21.5905 42.9893,22.7005 44.6093,22.7005 C46.2293,22.7005 47.2793,21.5905 47.2793,20.0005 L47.2793,20.0005 Z M52.8293,6.5015 L52.8293,27.5005 L47.2793,27.5005 L47.2793,26.6905 C46.3793,27.4705 45.1493,27.9205 43.5593,27.9205 C39.4793,27.9205 36.3903,24.5305 36.3903,20.0005 C36.3903,15.4705 39.4793,12.0805 43.5593,12.0805 C45.1493,12.0805 46.3793,12.5305 47.2793,13.3105 L47.2793,6.5015 L52.8293,6.5015 Z" id="Fill-18" fill="#FFFFFF"></path>
            <path d="M65.1592,20.0005 C65.1592,18.4405 64.1092,17.3605 62.6392,17.3605 C61.1692,17.3605 60.1192,18.4405 60.1192,20.0005 C60.1192,21.5605 61.1692,22.6405 62.6392,22.6405 C64.1092,22.6405 65.1592,21.5605 65.1592,20.0005 M54.5692,20.0005 C54.5692,15.5005 58.1392,12.0805 62.6392,12.0805 C67.1392,12.0805 70.7092,15.5005 70.7092,20.0005 C70.7092,24.5005 67.1392,27.9205 62.6392,27.9205 C58.1992,27.9205 54.5692,24.5005 54.5692,20.0005" id="Fill-19" fill="#FFFFFF"></path>
            <path d="M84.9285,23.0005 C84.9285,26.6605 81.6885,27.9205 78.3285,27.9205 C74.9695,27.9205 71.7295,26.6005 71.7295,22.5505 L77.2785,22.5505 C77.2785,23.4505 77.6385,23.8405 78.3285,23.8405 C79.0185,23.8405 79.3785,23.5705 79.3785,23.0605 C79.3785,21.2005 71.8195,22.8805 71.8195,17.0005 C71.8195,13.4905 75.0595,12.0805 78.2685,12.0805 C81.4785,12.0805 84.5985,13.7005 84.5985,17.3905 L79.2285,17.3905 C79.2285,16.5505 78.8685,16.1605 78.2685,16.1605 C77.7285,16.1605 77.3085,16.4305 77.3085,16.9405 C77.3085,18.9205 84.9285,16.9405 84.9285,23.0005" id="Fill-20" fill="#FFFFFF"></path>
            <path d="M102.6587,20.0005 C102.6587,18.4405 101.6087,17.3605 100.1387,17.3605 C98.6687,17.3605 97.6187,18.4405 97.6187,20.0005 C97.6187,21.5605 98.6687,22.6405 100.1387,22.6405 C101.6087,22.6405 102.6587,21.5605 102.6587,20.0005 M92.0687,20.0005 C92.0687,15.5005 95.6387,12.0805 100.1387,12.0805 C104.6387,12.0805 108.2087,15.5005 108.2087,20.0005 C108.2087,24.5005 104.6387,27.9205 100.1387,27.9205 C95.6987,27.9205 92.0687,24.5005 92.0687,20.0005" id="Fill-21" fill="#FFFFFF"></path>
            <path d="M122.428,23.0005 C122.428,26.6605 119.188,27.9205 115.828,27.9205 C112.469,27.9205 109.229,26.6005 109.229,22.5505 L114.778,22.5505 C114.778,23.4505 115.138,23.8405 115.828,23.8405 C116.518,23.8405 116.878,23.5705 116.878,23.0605 C116.878,21.2005 109.319,22.8805 109.319,17.0005 C109.319,13.4905 112.559,12.0805 115.768,12.0805 C118.978,12.0805 122.098,13.7005 122.098,17.3905 L116.728,17.3905 C116.728,16.5505 116.368,16.1605 115.768,16.1605 C115.228,16.1605 114.808,16.4305 114.808,16.9405 C114.808,18.9205 122.428,16.9405 122.428,23.0005" id="Fill-22" fill="#FFFFFF"></path>
            <path d="M19.7995,46.0102 C19.7995,49.6702 16.5595,50.9302 13.1995,50.9302 C9.8405,50.9302 6.6005,49.6102 6.6005,45.5602 L12.1495,45.5602 C12.1495,46.4602 12.5095,46.8502 13.1995,46.8502 C13.8895,46.8502 14.2495,46.5802 14.2495,46.0702 C14.2495,44.2102 6.6905,45.8902 6.6905,40.0102 C6.6905,36.5002 9.9305,35.0902 13.1395,35.0902 C16.3495,35.0902 19.4695,36.7102 19.4695,40.4002 L14.0995,40.4002 C14.0995,39.5602 13.7395,39.1702 13.1395,39.1702 C12.5995,39.1702 12.1795,39.4402 12.1795,39.9502 C12.1795,41.9302 19.7995,39.9502 19.7995,46.0102" id="Fill-23" fill="#FFFFFF"></path>
            <path d="M31.1096,41.3303 C30.7796,39.9803 29.8796,39.5303 28.7696,39.5303 C27.5696,39.5303 26.5796,40.0703 26.1596,41.3303 L31.1096,41.3303 Z M28.9796,46.8503 C29.7896,46.8503 30.5396,46.5203 30.7496,46.1003 L35.7596,46.1003 C34.7696,49.5803 31.8296,50.9303 28.5896,50.9303 C23.7896,50.9303 20.6706,47.4803 20.6706,43.0103 C20.6706,38.5403 23.9096,35.0903 28.7096,35.0903 C33.0896,35.0903 36.2696,38.4803 36.2696,42.9503 C36.2696,43.5803 36.2096,44.1803 36.0296,44.9003 L26.2196,44.9003 C26.7596,46.3703 27.9296,46.8503 28.9796,46.8503 L28.9796,46.8503 Z" id="Fill-24" fill="#FFFFFF"></path>
            <path d="M47.4597,35.2107 L47.4597,41.2107 C45.5997,40.9107 43.5597,41.6607 43.5597,44.3307 L43.5597,50.5097 L38.0097,50.5097 L38.0097,35.5107 L43.5597,35.5107 L43.5597,37.8807 C44.0697,36.1107 45.5997,35.2107 47.4597,35.2107" id="Fill-25" fill="#FFFFFF"></path>
            <polygon id="Fill-26" fill="#FFFFFF" points="64.4089 35.5105 58.8589 50.5105 53.6089 50.5105 53.1589 50.5105 47.6099 35.5105 53.4599 35.5105 56.0089 43.2505 58.5589 35.5105"></polygon>
            <path d="M65.609,50.51 L71.159,50.51 L71.159,35.51 L65.609,35.51 L65.609,50.51 Z M65.609,34.011 L71.159,34.011 L71.159,29.511 L65.609,29.511 L65.609,34.011 Z" id="Fill-27" fill="#FFFFFF"></path>
            <polygon id="Fill-28" fill="#FFFFFF" points="85.5588 45.4101 85.5588 50.5101 72.9588 50.5101 72.9588 46.6101 77.8788 40.6101 73.2588 40.6101 73.2588 35.5101 85.2588 35.5101 85.2588 39.4101 80.3388 45.4101"></polygon>
            <path d="M96.5688,43.0102 C96.5688,41.4502 95.5188,40.3702 94.0488,40.3702 C92.5788,40.3702 91.5288,41.4502 91.5288,43.0102 C91.5288,44.5702 92.5788,45.6502 94.0488,45.6502 C95.5188,45.6502 96.5688,44.5702 96.5688,43.0102 M85.9788,43.0102 C85.9788,38.5102 89.5488,35.0902 94.0488,35.0902 C98.5488,35.0902 102.1188,38.5102 102.1188,43.0102 C102.1188,47.5102 98.5488,50.9302 94.0488,50.9302 C89.6088,50.9302 85.9788,47.5102 85.9788,43.0102" id="Fill-29" fill="#FFFFFF"></path>
            <path d="M116.3381,46.0102 C116.3381,49.6702 113.0981,50.9302 109.7381,50.9302 C106.3791,50.9302 103.1391,49.6102 103.1391,45.5602 L108.6881,45.5602 C108.6881,46.4602 109.0481,46.8502 109.7381,46.8502 C110.4281,46.8502 110.7881,46.5802 110.7881,46.0702 C110.7881,44.2102 103.2291,45.8902 103.2291,40.0102 C103.2291,36.5002 106.4691,35.0902 109.6781,35.0902 C112.8881,35.0902 116.0081,36.7102 116.0081,40.4002 L110.6381,40.4002 C110.6381,39.5602 110.2781,39.1702 109.6781,39.1702 C109.1381,39.1702 108.7181,39.4402 108.7181,39.9502 C108.7181,41.9302 116.3381,39.9502 116.3381,46.0102" id="Fill-30" fill="#FFFFFF"></path>
            <path d="M18.0898,66.0205 C18.0898,64.4305 17.0398,63.3205 15.4198,63.3205 C13.7998,63.3205 12.7498,64.4305 12.7498,66.0205 C12.7498,67.6105 13.7998,68.7205 15.4198,68.7205 C17.0398,68.7205 18.0898,67.6105 18.0898,66.0205 M23.6398,66.0205 C23.6398,70.5505 20.5498,73.9405 16.4698,73.9405 C14.8798,73.9405 13.6498,73.4905 12.7498,72.7105 L12.7498,79.5205 L7.1998,79.5205 L7.1998,58.5205 L12.7498,58.5205 L12.7498,59.3305 C13.6498,58.5505 14.8798,58.1005 16.4698,58.1005 C20.5498,58.1005 23.6398,61.4905 23.6398,66.0205" id="Fill-31" fill="#FFFFFF"></path>
            <path d="M33.0293,69.2605 C33.0293,68.4505 32.3993,68.0005 31.5293,68.0005 C30.5993,68.0005 30.0593,68.5105 30.0593,69.2605 C30.0593,70.0105 30.5993,70.5205 31.5293,70.5205 C32.3993,70.5205 33.0293,70.0105 33.0293,69.2605 M38.3093,64.0705 L38.3093,73.5205 L33.0293,73.5205 L33.0293,72.6505 C32.2193,73.4305 31.2893,73.9405 29.6393,73.9405 C26.6993,73.9405 24.5093,72.3805 24.5093,69.2605 C24.5093,66.1405 26.8193,64.5805 29.7593,64.5805 C31.2893,64.5805 32.2493,64.9705 33.0293,65.4505 L33.0293,64.0705 C33.0293,63.4105 32.7293,62.8705 31.7693,62.8705 C30.8093,62.8705 30.5093,63.4105 30.5093,63.9205 L25.2293,63.9205 C25.2293,60.0205 28.4693,58.1005 31.7693,58.1005 C35.0693,58.1005 38.3093,60.0205 38.3093,64.0705" id="Fill-32" fill="#FFFFFF"></path>
            <path d="M50.0095,58.2209 L50.0095,64.2209 C48.1495,63.9209 46.1095,64.6709 46.1095,67.3409 L46.1095,73.5199 L40.5595,73.5199 L40.5595,58.5209 L46.1095,58.5209 L46.1095,60.8909 C46.6195,59.1209 48.1495,58.2209 50.0095,58.2209" id="Fill-33" fill="#FFFFFF"></path>
            <path d="M59.009,69.2605 C59.009,68.4505 58.379,68.0005 57.509,68.0005 C56.579,68.0005 56.039,68.5105 56.039,69.2605 C56.039,70.0105 56.579,70.5205 57.509,70.5205 C58.379,70.5205 59.009,70.0105 59.009,69.2605 M64.289,64.0705 L64.289,73.5205 L59.009,73.5205 L59.009,72.6505 C58.199,73.4305 57.269,73.9405 55.619,73.9405 C52.679,73.9405 50.489,72.3805 50.489,69.2605 C50.489,66.1405 52.799,64.5805 55.739,64.5805 C57.269,64.5805 58.229,64.9705 59.009,65.4505 L59.009,64.0705 C59.009,63.4105 58.709,62.8705 57.749,62.8705 C56.789,62.8705 56.489,63.4105 56.489,63.9205 L51.209,63.9205 C51.209,60.0205 54.449,58.1005 57.749,58.1005 C61.049,58.1005 64.289,60.0205 64.289,64.0705" id="Fill-34" fill="#FFFFFF"></path>
            <polygon id="Fill-35" fill="#FFFFFF" points="81.2388 63.8005 79.2288 63.8005 79.2288 73.5205 73.6788 73.5205 73.6788 63.8005 71.6388 63.8005 71.6388 58.5205 73.6788 58.5205 73.6788 53.7205 79.2288 53.7205 79.2288 58.5205 81.2388 58.5205"></polygon>
            <path d="M92.3686,66.0205 C92.3686,64.4605 91.3186,63.3805 89.8486,63.3805 C88.3786,63.3805 87.3286,64.4605 87.3286,66.0205 C87.3286,67.5805 88.3786,68.6605 89.8486,68.6605 C91.3186,68.6605 92.3686,67.5805 92.3686,66.0205 M81.7786,66.0205 C81.7786,61.5205 85.3486,58.1005 89.8486,58.1005 C94.3486,58.1005 97.9186,61.5205 97.9186,66.0205 C97.9186,70.5205 94.3486,73.9405 89.8486,73.9405 C85.4086,73.9405 81.7786,70.5205 81.7786,66.0205" id="Fill-36" fill="#FFFFFF"></path>
            <path d="M109.8882,66.0205 C109.8882,64.4305 108.8382,63.3205 107.2182,63.3205 C105.5982,63.3205 104.5482,64.4305 104.5482,66.0205 C104.5482,67.6105 105.5982,68.7205 107.2182,68.7205 C108.8382,68.7205 109.8882,67.6105 109.8882,66.0205 L109.8882,66.0205 Z M115.4382,52.5215 L115.4382,73.5205 L109.8882,73.5205 L109.8882,72.7105 C108.9882,73.4905 107.7582,73.9405 106.1682,73.9405 C102.0882,73.9405 98.9992,70.5505 98.9992,66.0205 C98.9992,61.4905 102.0882,58.1005 106.1682,58.1005 C107.7582,58.1005 108.9882,58.5505 109.8882,59.3305 L109.8882,52.5215 L115.4382,52.5215 Z" id="Fill-37" fill="#FFFFFF"></path>
            <path d="M125.758,69.2605 C125.758,68.4505 125.128,68.0005 124.258,68.0005 C123.328,68.0005 122.788,68.5105 122.788,69.2605 C122.788,70.0105 123.328,70.5205 124.258,70.5205 C125.128,70.5205 125.758,70.0105 125.758,69.2605 M131.038,64.0705 L131.038,73.5205 L125.758,73.5205 L125.758,72.6505 C124.948,73.4305 124.018,73.9405 122.368,73.9405 C119.428,73.9405 117.238,72.3805 117.238,69.2605 C117.238,66.1405 119.548,64.5805 122.488,64.5805 C124.018,64.5805 124.978,64.9705 125.758,65.4505 L125.758,64.0705 C125.758,63.4105 125.458,62.8705 124.498,62.8705 C123.538,62.8705 123.238,63.4105 123.238,63.9205 L117.958,63.9205 C117.958,60.0205 121.198,58.1005 124.498,58.1005 C127.798,58.1005 131.038,60.0205 131.038,64.0705" id="Fill-38" fill="#FFFFFF"></path>
            <path d="M145.8879,69.0205 C145.8879,72.6805 142.6479,73.9405 139.2879,73.9405 C135.9279,73.9405 132.6879,72.6205 132.6879,68.5705 L138.2379,68.5705 C138.2379,69.4705 138.5979,69.8605 139.2879,69.8605 C139.9779,69.8605 140.3379,69.5905 140.3379,69.0805 C140.3379,67.2205 132.7779,68.9005 132.7779,63.0205 C132.7779,59.5105 136.0179,58.1005 139.2279,58.1005 C142.4379,58.1005 145.5579,59.7205 145.5579,63.4105 L140.1879,63.4105 C140.1879,62.5705 139.8279,62.1805 139.2279,62.1805 C138.6879,62.1805 138.2679,62.4505 138.2679,62.9605 C138.2679,64.9405 145.8879,62.9605 145.8879,69.0205" id="Fill-39" fill="#FFFFFF"></path>
            <path d="M15.1199,92.2702 C15.1199,91.4602 14.4899,91.0102 13.6199,91.0102 C12.6899,91.0102 12.1499,91.5202 12.1499,92.2702 C12.1499,93.0202 12.6899,93.5302 13.6199,93.5302 C14.4899,93.5302 15.1199,93.0202 15.1199,92.2702 M20.3999,87.0802 L20.3999,96.5302 L15.1199,96.5302 L15.1199,95.6602 C14.3099,96.4392 13.3799,96.9502 11.7299,96.9502 C8.7899,96.9502 6.5999,95.3902 6.5999,92.2702 C6.5999,89.1502 8.9099,87.5902 11.8499,87.5902 C13.3799,87.5902 14.3399,87.9802 15.1199,88.4602 L15.1199,87.0802 C15.1199,86.4202 14.8199,85.8802 13.8599,85.8802 C12.8999,85.8802 12.5999,86.4202 12.5999,86.9302 L7.3199,86.9302 C7.3199,83.0302 10.5599,81.1102 13.8599,81.1102 C17.1599,81.1102 20.3999,83.0302 20.3999,87.0802" id="Fill-40" fill="#FFFFFF"></path>
            <path d="M35.2497,92.03 C35.2497,95.69 32.0097,96.95 28.6497,96.95 C25.2897,96.95 22.0497,95.63 22.0497,91.58 L27.5997,91.58 C27.5997,92.48 27.9597,92.87 28.6497,92.87 C29.3397,92.87 29.6997,92.6 29.6997,92.09 C29.6997,90.23 22.1397,91.91 22.1397,86.03 C22.1397,82.52 25.3797,81.111 28.5897,81.111 C31.7997,81.111 34.9197,82.731 34.9197,86.42 L29.5497,86.42 C29.5497,85.581 29.1897,85.19 28.5897,85.19 C28.0497,85.19 27.6297,85.46 27.6297,85.97 C27.6297,87.95 35.2497,85.97 35.2497,92.03" id="Fill-41" fill="#FFFFFF"></path>
            <path d="M53.9394,89.03 C53.9394,87.44 52.8894,86.33 51.2694,86.33 C49.6494,86.33 48.5994,87.44 48.5994,89.03 C48.5994,90.62 49.6494,91.73 51.2694,91.73 C52.8894,91.73 53.9394,90.62 53.9394,89.03 M59.4894,89.03 C59.4894,93.56 56.3994,96.95 52.3194,96.95 C50.7294,96.95 49.4994,96.5 48.5994,95.72 L48.5994,102.53 L43.0494,102.53 L43.0494,81.53 L48.5994,81.53 L48.5994,82.341 C49.4994,81.561 50.7294,81.111 52.3194,81.111 C56.3994,81.111 59.4894,84.5 59.4894,89.03" id="Fill-42" fill="#FFFFFF"></path>
            <path d="M71.009,87.3503 C70.679,86.0003 69.779,85.5503 68.669,85.5503 C67.469,85.5503 66.479,86.0903 66.059,87.3503 L71.009,87.3503 Z M68.879,92.8703 C69.689,92.8703 70.439,92.5403 70.649,92.1203 L75.659,92.1203 C74.669,95.6003 71.729,96.9503 68.489,96.9503 C63.689,96.9503 60.57,93.5003 60.57,89.0303 C60.57,84.5603 63.809,81.1103 68.609,81.1103 C72.989,81.1103 76.169,84.5003 76.169,88.9703 C76.169,89.6003 76.109,90.2003 75.929,90.9203 L66.119,90.9203 C66.659,92.3903 67.829,92.8703 68.879,92.8703 L68.879,92.8703 Z" id="Fill-43" fill="#FFFFFF"></path>
            <path d="M87.3591,81.2307 L87.3591,87.2307 C85.4991,86.9307 83.4591,87.6807 83.4591,90.3507 L83.4591,96.5297 L77.9091,96.5297 L77.9091,81.5307 L83.4591,81.5307 L83.4591,83.9007 C83.9691,82.1307 85.4991,81.2307 87.3591,81.2307" id="Fill-44" fill="#FFFFFF"></path>
            <path d="M101.1887,92.03 C101.1887,95.69 97.9487,96.95 94.5887,96.95 C91.2287,96.95 87.9887,95.63 87.9887,91.58 L93.5387,91.58 C93.5387,92.48 93.8987,92.87 94.5887,92.87 C95.2787,92.87 95.6387,92.6 95.6387,92.09 C95.6387,90.23 88.0787,91.91 88.0787,86.03 C88.0787,82.52 91.3187,81.111 94.5287,81.111 C97.7387,81.111 100.8587,82.731 100.8587,86.42 L95.4887,86.42 C95.4887,85.581 95.1287,85.19 94.5287,85.19 C93.9887,85.19 93.5687,85.46 93.5687,85.97 C93.5687,87.95 101.1887,85.97 101.1887,92.03" id="Fill-45" fill="#FFFFFF"></path>
            <path d="M112.6186,89.03 C112.6186,87.47 111.5686,86.39 110.0986,86.39 C108.6286,86.39 107.5786,87.47 107.5786,89.03 C107.5786,90.59 108.6286,91.67 110.0986,91.67 C111.5686,91.67 112.6186,90.59 112.6186,89.03 M102.0286,89.03 C102.0286,84.53 105.5986,81.111 110.0986,81.111 C114.5986,81.111 118.1686,84.53 118.1686,89.03 C118.1686,93.53 114.5986,96.95 110.0986,96.95 C105.6586,96.95 102.0286,93.53 102.0286,89.03" id="Fill-46" fill="#FFFFFF"></path>
            <path d="M127.5583,92.2702 C127.5583,91.4602 126.9283,91.0102 126.0583,91.0102 C125.1283,91.0102 124.5883,91.5202 124.5883,92.2702 C124.5883,93.0202 125.1283,93.5302 126.0583,93.5302 C126.9283,93.5302 127.5583,93.0202 127.5583,92.2702 M132.8383,87.0802 L132.8383,96.5302 L127.5583,96.5302 L127.5583,95.6602 C126.7483,96.4392 125.8183,96.9502 124.1683,96.9502 C121.2283,96.9502 119.0383,95.3902 119.0383,92.2702 C119.0383,89.1502 121.3483,87.5902 124.2883,87.5902 C125.8183,87.5902 126.7783,87.9802 127.5583,88.4602 L127.5583,87.0802 C127.5583,86.4202 127.2583,85.8802 126.2983,85.8802 C125.3383,85.8802 125.0383,86.4202 125.0383,86.9302 L119.7583,86.9302 C119.7583,83.0302 122.9983,81.1102 126.2983,81.1102 C129.5983,81.1102 132.8383,83.0302 132.8383,87.0802" id="Fill-47" fill="#FFFFFF"></path>
            <path d="M147.6882,92.03 C147.6882,95.69 144.4482,96.95 141.0882,96.95 C137.7282,96.95 134.4882,95.63 134.4882,91.58 L140.0382,91.58 C140.0382,92.48 140.3982,92.87 141.0882,92.87 C141.7782,92.87 142.1382,92.6 142.1382,92.09 C142.1382,90.23 134.5782,91.91 134.5782,86.03 C134.5782,82.52 137.8182,81.111 141.0282,81.111 C144.2382,81.111 147.3582,82.731 147.3582,86.42 L141.9882,86.42 C141.9882,85.581 141.6282,85.19 141.0282,85.19 C140.4882,85.19 140.0682,85.46 140.0682,85.97 C140.0682,87.95 147.6882,85.97 147.6882,92.03" id="Fill-48" fill="#FFFFFF"></path>
            <polygon id="Path" fill="#FFFFFF" points="207.042 45.988 217.047 45.988 217.047 35.565 207.042 35.565"></polygon>
            <polygon id="Path" fill="#FFFFFF" points="223.032 45.988 233.037 45.988 233.037 35.565 223.032 35.565"></polygon>
            <polygon id="Path" fill="#FFFFFF" points="239.022 45.988 249.027 45.988 249.027 35.565 239.022 35.565"></polygon>
            <polygon id="Path" fill="#FFFFFF" points="207.042 30.955 217.047 30.955 217.047 21.282 207.042 21.282"></polygon>
            <polygon id="Path" fill="#FFFFFF" points="223.032 30.955 233.037 30.955 233.037 21.282 223.032 21.282"></polygon>
            <polygon id="Path" fill="#FFFFFF" points="239.022 30.955 249.027 30.955 249.027 21.282 239.022 21.282"></polygon>
            <polygon id="Path" fill="#FFFFFF" points="207.042 16.422 217.047 16.422 217.047 6.499 207.042 6.499"></polygon>
            <polygon id="Path" fill="#FFFFFF" points="223.032 16.422 233.037 16.422 233.037 6.499 223.032 6.499"></polygon>
            <polygon id="Path" fill="#FFFFFF" points="239.022 16.422 249.027 16.422 249.027 6.499 239.022 6.499"></polygon>
        </g>
    </g>
</svg>