<?xml version="1.0" encoding="UTF-8" standalone="no"?>
<svg width="204px" height="176px" viewBox="0 0 204 176" version="1.1" xmlns="http://www.w3.org/2000/svg" xmlns:xlink="http://www.w3.org/1999/xlink">
    <!-- Generator: Sketch 39.1 (31720) - http://www.bohemiancoding.com/sketch -->
    <title>program-goberno-img</title>
    <desc>Created with Sketch.</desc>
    <defs></defs>
    <g id="Page-1" stroke="none" stroke-width="1" fill="none" fill-rule="evenodd">
        <g id="program-goberno-img">
            <polygon id="Fill-1" fill="#004EFF" points="0.2871 32.4403 0.2871 51.6083 0.2871 93.3583 0.2871 175.0293 52.4481 175.0293 140.4121 175.0663 140.4121 93.3583 140.4121 32.4403"></polygon>
            <path d="M119.9772,106.8961 L102.9552,126.7281 C102.3172,127.4491 101.3592,127.9151 100.3492,127.9151 C99.3382,127.9151 98.3812,127.4491 97.7432,126.7281 L80.7212,106.8961 C80.1882,106.3271 79.9222,105.5531 79.9222,104.7781 C79.9222,102.9701 81.4652,101.4721 83.3272,101.4721 L93.5402,101.4721 L93.5402,83.3101 L60.3962,83.3101 C59.9182,83.3101 58.9882,83.4641 58.6932,82.6651 L58.5672,73.5381 C58.5042,72.7391 58.5302,72.1031 58.5302,71.7421 C58.5302,70.8641 59.3282,70.0891 60.2322,70.0891 L105.4552,70.0891 C107.4242,70.0891 107.1582,72.1031 107.1582,73.3951 L107.1582,81.6581 L107.1582,101.4721 L117.3712,101.4721 C119.2332,101.4721 120.7752,102.9701 120.7752,104.7781 C120.7752,105.5531 120.5092,106.3271 119.9772,106.8961" id="Fill-2" fill="#FFFFFF"></path>
            <path d="M15.2982,106.7719 L32.3202,86.9399 C32.9582,86.2189 33.9162,85.7529 34.9262,85.7529 C35.9372,85.7529 36.8942,86.2189 37.5322,86.9399 L54.5542,106.7719 C55.0872,107.3409 55.3532,108.1149 55.3532,108.8899 C55.3532,110.6979 53.8102,112.1959 51.9482,112.1959 L41.7352,112.1959 L41.7352,125.3489 L74.8792,125.3489 C75.3572,125.3489 76.2872,125.1959 76.5822,125.9949 L76.7082,135.1219 C76.7712,135.9209 76.7452,136.5559 76.7452,136.9179 C76.7452,137.7959 75.9472,138.5699 75.0432,138.5699 L29.8202,138.5699 C27.8512,138.5699 28.1172,136.5559 28.1172,135.2649 L28.1172,127.0019 L28.1172,112.1959 L17.9042,112.1959 C16.0422,112.1959 14.5002,110.6979 14.5002,108.8899 C14.5002,108.1149 14.7662,107.3409 15.2982,106.7719" id="Fill-4" fill="#FFFFFF"></path>
            <polygon id="Fill-6" fill="#00CCCC" points="140.709 32.4403 0 32.4403 62.1 1.0003 203.485 1.0003"></polygon>
            <polygon id="Fill-8" fill="#00CCCC" points="140.5344 174.5667 203.4854 130.4527 203.4854 0.9997 140.5344 32.4407"></polygon>
        </g>
    </g>
</svg>