<?xml version="1.0" encoding="UTF-8" standalone="no"?>
<svg width="169px" height="189px" viewBox="0 0 169 189" version="1.1" xmlns="http://www.w3.org/2000/svg" xmlns:xlink="http://www.w3.org/1999/xlink">
    <!-- Generator: Sketch 39.1 (31720) - http://www.bohemiancoding.com/sketch -->
    <title>program-cidadania-img</title>
    <desc>Created with Sketch.</desc>
    <defs></defs>
    <g id="Page-1" stroke="none" stroke-width="1" fill="none" fill-rule="evenodd">
        <g id="program-cidadania-img">
            <polygon id="Fill-1" fill="#00CCCC" points="57 118.947 168.667 118.947 168.667 0 57 0"></polygon>
            <path d="M113.748,72.926 C111.684,72.926 109.619,72.8 107.64,72.589 C102.12,77.476 95.548,80.93 88.26,82.784 C86.743,83.206 85.1,83.501 83.457,83.711 C82.53,83.796 81.646,83.121 81.435,82.11 L81.435,82.068 C81.224,81.015 81.941,80.383 82.572,79.625 C85.227,76.634 88.26,74.106 90.24,67.07 C81.562,62.141 76,54.515 76,45.963 C76,31.092 92.894,19 113.748,19 C134.602,19 151.496,31.049 151.496,45.963 C151.496,60.877 134.602,72.926 113.748,72.926" id="Fill-2" fill="#FFFFFF"></path>
            <polygon id="Fill-4" fill="#004EFF" points="123.276 95 58.147 95 58.147 72 0 72 0 189.395 123.276 189.395"></polygon>
            <path d="M20,134.963 C20,120.049 36.893,108 57.748,108 C78.602,108 95.496,120.092 95.496,134.963 C95.496,143.515 89.934,151.141 81.256,156.07 C83.236,163.105 86.269,165.633 88.923,168.624 C89.555,169.383 90.272,170.015 90.061,171.068 L90.061,171.11 C89.85,172.121 88.965,172.795 88.039,172.711 C86.396,172.5 84.753,172.205 83.236,171.784 C75.948,169.93 69.376,166.476 63.856,161.589 C61.877,161.799 59.812,161.926 57.748,161.926 C36.893,161.926 20,149.877 20,134.963" id="Fill-6" fill="#FFFFFF"></path>
        </g>
    </g>
</svg>