<?xml version="1.0" encoding="UTF-8" standalone="no"?>
<svg width="269px" height="154px" viewBox="0 0 269 154" version="1.1" xmlns="http://www.w3.org/2000/svg" xmlns:xlink="http://www.w3.org/1999/xlink">
    <!-- Generator: Sketch 39.1 (31720) - http://www.bohemiancoding.com/sketch -->
    <title>program-goberno</title>
    <desc>Created with Sketch.</desc>
    <defs></defs>
    <g id="Page-1" stroke="none" stroke-width="1" fill="none" fill-rule="evenodd">
        <g id="program-goberno">
            <path d="M222.0134,0.957 L245.7744,21.352 C246.6394,22.116 247.1974,23.264 247.1974,24.474 C247.1974,25.685 246.6394,26.833 245.7744,27.597 L222.0134,47.992 C221.3324,48.629 220.4044,48.948 219.4764,48.948 C217.3094,48.948 215.5154,47.1 215.5154,44.869 L215.5154,32.632 L193.7544,32.632 L193.7544,72.343 C193.7544,72.916 193.9384,74.031 192.9814,74.384 L182.0464,74.535 C181.0884,74.61 180.3274,74.579 179.8934,74.579 C178.8414,74.579 177.9134,73.623 177.9134,72.54 L177.9134,18.356 C177.9134,15.997 180.3274,16.316 181.8734,16.316 L191.7744,16.316 L215.5154,16.316 L215.5154,4.079 C215.5154,1.849 217.3094,2.84217094e-14 219.4764,2.84217094e-14 C220.4044,2.84217094e-14 221.3324,0.319 222.0134,0.957 L222.0134,0.957 Z" class="is-green" id="Fill-1" fill="#00CCCC"></path>
            <path d="M230.2645,152.9624 L206.5035,132.5674 C205.6385,131.8034 205.0805,130.6554 205.0805,129.4454 C205.0805,128.2344 205.6385,127.0864 206.5035,126.3224 L230.2645,105.9274 C230.9455,105.2904 231.8735,104.9714 232.8015,104.9714 C234.9685,104.9714 236.7625,106.8194 236.7625,109.0504 L236.7625,121.2874 L252.5225,121.2874 L252.5225,81.5764 C252.5225,81.0034 252.3385,79.8884 253.2965,79.5354 L264.2315,79.3844 C265.1885,79.3094 265.9505,79.3404 266.3835,79.3404 C267.4355,79.3404 268.3635,80.2964 268.3635,81.3794 L268.3635,135.5634 C268.3635,137.9224 265.9505,137.6034 264.4035,137.6034 L254.5035,137.6034 L236.7625,137.6034 L236.7625,149.8404 C236.7625,152.0704 234.9685,153.9194 232.8015,153.9194 C231.8735,153.9194 230.9455,153.6004 230.2645,152.9624" id="Fill-3" class="is-green" fill="#00CCCC"></path>
            <polygon id="Fill-6" class="is-blue" fill="#004EFF" points="268.6328 55.8572 -0.0002 55.8572 -0.0002 78.8572 -0.0002 90.8562 -0.0002 90.8572 -0.0002 102.8562 -0.0002 113.8562 -0.0002 125.8562 -0.0002 143.8562 195.4778 143.8562 195.4778 113.8562 195.4778 94.8572 268.6328 94.8572"></polygon>
            <path d="M23.0093,72.8577 C23.0093,69.9477 20.8493,67.7577 17.8793,67.7577 C14.9093,67.7577 12.7493,69.9477 12.7493,72.8577 C12.7493,75.7677 14.9093,77.9577 17.8793,77.9577 C20.8493,77.9577 23.0093,75.7677 23.0093,72.8577 M6.7503,72.8577 C6.7503,66.6477 11.6693,61.8787 17.8793,61.8787 C24.0893,61.8787 29.0093,66.6477 29.0093,72.8577 C29.0093,79.0667 24.0893,83.8367 17.8793,83.8367 C11.6693,83.8367 6.7503,79.0667 6.7503,72.8577" id="Fill-9" fill="#FFFFFF"></path>
            <path d="M47.3989,75.5574 C47.3989,74.0874 46.3489,72.9774 44.7289,72.9774 C43.1089,72.9774 42.0589,74.0874 42.0589,75.5574 C42.0589,77.0274 43.1089,78.1374 44.7289,78.1374 C46.3489,78.1374 47.3989,77.0274 47.3989,75.5574 L47.3989,75.5574 Z M52.9489,68.3574 L52.9489,82.9074 C52.9489,87.8874 48.9589,89.8364 45.0889,89.8364 C41.2189,89.8364 37.2299,88.2174 37.2299,83.5374 L42.7789,83.5374 C42.7789,84.6474 43.8889,85.0364 45.0889,85.0364 C46.2889,85.0364 47.3989,84.4674 47.3989,82.9074 L47.3989,81.9774 C46.4989,82.7274 45.2689,83.1774 43.6789,83.1774 C39.5989,83.1774 36.5099,79.7874 36.5099,75.5574 C36.5099,71.3284 39.5989,67.9374 43.6789,67.9374 C45.2689,67.9374 46.4989,68.3884 47.3989,69.1384 L47.3989,68.3574 L52.9489,68.3574 Z" id="Fill-11" fill="#FFFFFF"></path>
            <path d="M65.279,75.8577 C65.279,74.2977 64.229,73.2177 62.759,73.2177 C61.289,73.2177 60.239,74.2977 60.239,75.8577 C60.239,77.4177 61.289,78.4977 62.759,78.4977 C64.229,78.4977 65.279,77.4177 65.279,75.8577 M54.689,75.8577 C54.689,71.3577 58.259,67.9377 62.759,67.9377 C67.259,67.9377 70.829,71.3577 70.829,75.8577 C70.829,80.3577 67.259,83.7767 62.759,83.7767 C58.319,83.7767 54.689,80.3577 54.689,75.8577" id="Fill-13" fill="#FFFFFF"></path>
            <path d="M83.4587,75.8577 C83.4587,74.2677 82.4087,73.1577 80.7887,73.1577 C79.1687,73.1577 78.1187,74.2677 78.1187,75.8577 C78.1187,77.4477 79.1687,78.5577 80.7887,78.5577 C82.4087,78.5577 83.4587,77.4477 83.4587,75.8577 M89.0087,75.8577 C89.0087,80.3877 85.9187,83.7767 81.8387,83.7767 C80.2487,83.7767 79.0187,83.3277 78.1187,82.5467 L78.1187,83.3577 L72.5687,83.3577 L72.5687,62.3577 L78.1187,62.3577 L78.1187,69.1677 C79.0187,68.3877 80.2487,67.9377 81.8387,67.9377 C85.9187,67.9377 89.0087,71.3277 89.0087,75.8577" id="Fill-15" fill="#FFFFFF"></path>
            <path d="M100.5281,74.1775 C100.1981,72.8275 99.2981,72.3775 98.1881,72.3775 C96.9881,72.3775 95.9981,72.9175 95.5781,74.1775 L100.5281,74.1775 Z M98.3981,79.6975 C99.2081,79.6975 99.9581,79.3675 100.1681,78.9475 L105.1781,78.9475 C104.1881,82.4275 101.2481,83.7775 98.0081,83.7775 C93.2081,83.7775 90.0891,80.3275 90.0891,75.8575 C90.0891,71.3875 93.3281,67.9375 98.1281,67.9375 C102.5081,67.9375 105.6881,71.3275 105.6881,75.7975 C105.6881,76.4275 105.6281,77.0275 105.4481,77.7475 L95.6381,77.7475 C96.1781,79.2175 97.3481,79.6975 98.3981,79.6975 L98.3981,79.6975 Z" id="Fill-17" fill="#FFFFFF"></path>
            <path d="M116.8779,68.0579 L116.8779,74.0579 C115.0179,73.7579 112.9779,74.5079 112.9779,77.1779 L112.9779,83.3569 L107.4279,83.3569 L107.4279,68.3579 L112.9779,68.3579 L112.9779,70.7279 C113.4879,68.9579 115.0179,68.0579 116.8779,68.0579" id="Fill-19" fill="#FFFFFF"></path>
            <path d="M132.0278,73.7874 L132.0278,83.3574 L126.4778,83.3574 L126.4778,74.5374 C126.4778,73.7874 126.0578,73.2774 125.2178,73.2774 C124.1678,73.2774 123.7778,74.0274 123.7778,74.8974 L123.7778,83.3574 L118.2278,83.3574 L118.2278,68.3574 L123.7778,68.3574 L123.7778,69.4674 C124.5578,68.5374 125.7278,67.9374 127.2278,67.9374 C130.0178,67.9374 132.0278,70.0374 132.0278,73.7874" id="Fill-21" fill="#FFFFFF"></path>
            <path d="M144.2075,75.8577 C144.2075,74.2977 143.1575,73.2177 141.6875,73.2177 C140.2175,73.2177 139.1675,74.2977 139.1675,75.8577 C139.1675,77.4177 140.2175,78.4977 141.6875,78.4977 C143.1575,78.4977 144.2075,77.4177 144.2075,75.8577 M133.6175,75.8577 C133.6175,71.3577 137.1875,67.9377 141.6875,67.9377 C146.1875,67.9377 149.7575,71.3577 149.7575,75.8577 C149.7575,80.3577 146.1875,83.7767 141.6875,83.7767 C137.2475,83.7767 133.6175,80.3577 133.6175,75.8577" id="Fill-23" fill="#FFFFFF"></path>
            <path d="M172.5225,75.2338 C172.5225,73.7638 171.4725,72.6538 169.8525,72.6538 C168.2325,72.6538 167.1825,73.7638 167.1825,75.2338 C167.1825,76.7038 168.2325,77.8138 169.8525,77.8138 C171.4725,77.8138 172.5225,76.7038 172.5225,75.2338 L172.5225,75.2338 Z M178.0725,68.0338 L178.0725,82.5838 C178.0725,87.5638 174.0825,89.5128 170.2125,89.5128 C166.3425,89.5128 162.3525,87.8938 162.3525,83.2138 L167.9025,83.2138 C167.9025,84.3238 169.0125,84.7128 170.2125,84.7128 C171.4125,84.7128 172.5225,84.1438 172.5225,82.5838 L172.5225,81.6538 C171.6225,82.4038 170.3925,82.8538 168.8025,82.8538 C164.7225,82.8538 161.6325,79.4638 161.6325,75.2338 C161.6325,71.0048 164.7225,67.6138 168.8025,67.6138 C170.3925,67.6138 171.6225,68.0648 172.5225,68.8148 L172.5225,68.0338 L178.0725,68.0338 Z" id="Fill-25" fill="#FFFFFF"></path>
            <path d="M188.3922,78.7739 C188.3922,77.9639 187.7622,77.5139 186.8922,77.5139 C185.9622,77.5139 185.4222,78.0239 185.4222,78.7739 C185.4222,79.5239 185.9622,80.0339 186.8922,80.0339 C187.7622,80.0339 188.3922,79.5239 188.3922,78.7739 M193.6722,73.5839 L193.6722,83.0339 L188.3922,83.0339 L188.3922,82.1639 C187.5822,82.9439 186.6522,83.4539 185.0022,83.4539 C182.0622,83.4539 179.8722,81.8939 179.8722,78.7739 C179.8722,75.6539 182.1822,74.0939 185.1222,74.0939 C186.6522,74.0939 187.6122,74.4839 188.3922,74.9639 L188.3922,73.5839 C188.3922,72.9239 188.0922,72.3839 187.1322,72.3839 C186.1722,72.3839 185.8722,72.9239 185.8722,73.4339 L180.5922,73.4339 C180.5922,69.5339 183.8322,67.6139 187.1322,67.6139 C190.4322,67.6139 193.6722,69.5339 193.6722,73.5839" id="Fill-27" fill="#FFFFFF"></path>
            <polygon id="Fill-29" fill="#FFFFFF" points="195.922 83.034 201.472 83.034 201.472 61.435 195.922 61.435"></polygon>
            <path d="M213.6519,73.854 C213.3219,72.504 212.4219,72.054 211.3119,72.054 C210.1119,72.054 209.1219,72.594 208.7019,73.854 L213.6519,73.854 Z M211.5219,79.374 C212.3319,79.374 213.0819,79.044 213.2919,78.624 L218.3019,78.624 C217.3119,82.104 214.3719,83.454 211.1319,83.454 C206.3319,83.454 203.2129,80.004 203.2129,75.534 C203.2129,71.064 206.4519,67.614 211.2519,67.614 C215.6319,67.614 218.8119,71.004 218.8119,75.474 C218.8119,76.104 218.7519,76.704 218.5719,77.424 L208.7619,77.424 C209.3019,78.894 210.4719,79.374 211.5219,79.374 L211.5219,79.374 Z" id="Fill-31" fill="#FFFFFF"></path>
            <path d="M230.9922,75.2338 C230.9922,73.7638 229.9422,72.6538 228.3222,72.6538 C226.7022,72.6538 225.6522,73.7638 225.6522,75.2338 C225.6522,76.7038 226.7022,77.8138 228.3222,77.8138 C229.9422,77.8138 230.9922,76.7038 230.9922,75.2338 L230.9922,75.2338 Z M236.5422,68.0338 L236.5422,82.5838 C236.5422,87.5638 232.5522,89.5128 228.6822,89.5128 C224.8122,89.5128 220.8222,87.8938 220.8222,83.2138 L226.3722,83.2138 C226.3722,84.3238 227.4822,84.7128 228.6822,84.7128 C229.8822,84.7128 230.9922,84.1438 230.9922,82.5838 L230.9922,81.6538 C230.0922,82.4038 228.8622,82.8538 227.2722,82.8538 C223.1922,82.8538 220.1022,79.4638 220.1022,75.2338 C220.1022,71.0048 223.1922,67.6138 227.2722,67.6138 C228.8622,67.6138 230.0922,68.0648 230.9922,68.8148 L230.9922,68.0338 L236.5422,68.0338 Z" id="Fill-32" fill="#FFFFFF"></path>
            <path d="M248.8719,75.5341 C248.8719,73.9741 247.8219,72.8941 246.3519,72.8941 C244.8819,72.8941 243.8319,73.9741 243.8319,75.5341 C243.8319,77.0941 244.8819,78.1741 246.3519,78.1741 C247.8219,78.1741 248.8719,77.0941 248.8719,75.5341 M238.2819,75.5341 C238.2819,71.0341 241.8519,67.6141 246.3519,67.6141 C250.8519,67.6141 254.4219,71.0341 254.4219,75.5341 C254.4219,80.0341 250.8519,83.4531 246.3519,83.4531 C241.9119,83.4531 238.2819,80.0341 238.2819,75.5341" id="Fill-33" fill="#FFFFFF"></path>
            <path d="M17.4294,101.8757 C17.4294,100.2857 16.3794,99.1757 14.7594,99.1757 C13.1394,99.1757 12.0894,100.2857 12.0894,101.8757 C12.0894,103.4657 13.1394,104.5757 14.7594,104.5757 C16.3794,104.5757 17.4294,103.4657 17.4294,101.8757 L17.4294,101.8757 Z M22.9794,94.3757 L22.9794,115.3747 L17.4294,115.3747 L17.4294,108.5647 C16.5294,109.3457 15.2994,109.7947 13.7094,109.7947 C9.6294,109.7947 6.5404,106.4057 6.5404,101.8757 C6.5404,97.3457 9.6294,93.9557 13.7094,93.9557 C15.2994,93.9557 16.5294,94.4057 17.4294,95.1857 L17.4294,94.3757 L22.9794,94.3757 Z" id="Fill-34" fill="#FFFFFF"></path>
            <path d="M39.0288,94.3757 L39.0288,109.3757 L33.4788,109.3757 L33.4788,108.2657 C32.6988,109.1947 31.5288,109.7947 30.0288,109.7947 C27.2388,109.7947 25.2298,107.6947 25.2298,103.9457 L25.2298,94.3757 L30.7788,94.3757 L30.7788,103.1957 C30.7788,103.9457 31.1988,104.4557 32.0388,104.4557 C33.0888,104.4557 33.4788,103.7057 33.4788,102.8357 L33.4788,94.3757 L39.0288,94.3757 Z" id="Fill-35" fill="#FFFFFF"></path>
            <path d="M51.2087,100.1956 C50.8787,98.8456 49.9787,98.3956 48.8687,98.3956 C47.6687,98.3956 46.6787,98.9356 46.2587,100.1956 L51.2087,100.1956 Z M49.0787,105.7156 C49.8887,105.7156 50.6387,105.3856 50.8487,104.9656 L55.8587,104.9656 C54.8687,108.4456 51.9287,109.7956 48.6887,109.7956 C43.8887,109.7956 40.7697,106.3456 40.7697,101.8756 C40.7697,97.4056 44.0087,93.9556 48.8087,93.9556 C53.1887,93.9556 56.3687,97.3456 56.3687,101.8156 C56.3687,102.4456 56.3087,103.0456 56.1287,103.7656 L46.3187,103.7656 C46.8587,105.2356 48.0287,105.7156 49.0787,105.7156 L49.0787,105.7156 Z" id="Fill-36" fill="#FFFFFF"></path>
            <path d="M71.4587,109.7952 C66.8687,109.7952 63.4487,106.3752 63.4487,101.8762 C63.4487,97.3762 66.8687,93.9562 71.4587,93.9562 C75.4787,93.9562 78.8087,96.7752 79.2287,100.6752 L73.4987,100.6752 C73.2587,99.8362 72.4487,99.2952 71.4587,99.2952 C70.0487,99.2952 68.9987,100.3762 68.9987,101.8762 C68.9987,103.3762 70.0487,104.4552 71.4587,104.4552 C72.4487,104.4552 73.2887,103.9152 73.5287,103.0752 L79.2287,103.0752 C78.8087,106.9752 75.5087,109.7952 71.4587,109.7952" id="Fill-37" fill="#FFFFFF"></path>
            <path d="M90.6582,101.8757 C90.6582,100.3157 89.6082,99.2357 88.1382,99.2357 C86.6682,99.2357 85.6182,100.3157 85.6182,101.8757 C85.6182,103.4357 86.6682,104.5157 88.1382,104.5157 C89.6082,104.5157 90.6582,103.4357 90.6582,101.8757 M80.0682,101.8757 C80.0682,97.3757 83.6382,93.9557 88.1382,93.9557 C92.6382,93.9557 96.2082,97.3757 96.2082,101.8757 C96.2082,106.3757 92.6382,109.7947 88.1382,109.7947 C83.6982,109.7947 80.0682,106.3757 80.0682,101.8757" id="Fill-38" fill="#FFFFFF"></path>
            <path d="M111.7475,99.8054 L111.7475,109.3754 L106.1975,109.3754 L106.1975,100.5554 C106.1975,99.8054 105.7775,99.2954 104.9375,99.2954 C103.8875,99.2954 103.4975,100.0454 103.4975,100.9154 L103.4975,109.3754 L97.9485,109.3754 L97.9485,94.3754 L103.4975,94.3754 L103.4975,95.4854 C104.2785,94.5554 105.4475,93.9554 106.9475,93.9554 C109.7375,93.9554 111.7475,96.0554 111.7475,99.8054" id="Fill-39" fill="#FFFFFF"></path>
            <path d="M126.5976,104.8753 C126.5976,108.5353 123.3576,109.7953 119.9976,109.7953 C116.6376,109.7953 113.3976,108.4753 113.3976,104.4253 L118.9476,104.4253 C118.9476,105.3253 119.3076,105.7153 119.9976,105.7153 C120.6876,105.7153 121.0476,105.4453 121.0476,104.9353 C121.0476,103.0753 113.4876,104.7553 113.4876,98.8753 C113.4876,95.3663 116.7276,93.9563 119.9376,93.9563 C123.1476,93.9563 126.2676,95.5763 126.2676,99.2663 L120.8976,99.2663 C120.8976,98.4253 120.5376,98.0363 119.9376,98.0363 C119.3976,98.0363 118.9776,98.3063 118.9776,98.8153 C118.9776,100.7953 126.5976,98.8153 126.5976,104.8753" id="Fill-40" fill="#FFFFFF"></path>
            <polygon id="Fill-41" fill="#FFFFFF" points="136.7973 99.6555 134.7873 99.6555 134.7873 109.3755 129.2373 109.3755 129.2373 99.6555 127.1973 99.6555 127.1973 94.3755 129.2373 94.3755 129.2373 89.5755 134.7873 89.5755 134.7873 94.3755 136.7973 94.3755"></polygon>
            <path d="M147.7471,94.0759 L147.7471,100.0759 C145.8871,99.7759 143.8471,100.5259 143.8471,103.1959 L143.8471,109.3749 L138.2981,109.3749 L138.2981,94.3759 L143.8471,94.3759 L143.8471,96.7459 C144.3571,94.9759 145.8871,94.0759 147.7471,94.0759" id="Fill-42" fill="#FFFFFF"></path>
            <path d="M158.3369,92.8757 L153.1169,92.8757 L155.5169,88.3757 L161.8169,88.3757 L158.3369,92.8757 Z M162.7469,94.3757 L162.7469,109.3757 L157.1969,109.3757 L157.1969,108.2657 C156.4169,109.1947 155.2469,109.7947 153.7469,109.7947 C150.9579,109.7947 148.9469,107.6947 148.9469,103.9457 L148.9469,94.3757 L154.4969,94.3757 L154.4969,103.1957 C154.4969,103.9457 154.9169,104.4557 155.7569,104.4557 C156.8069,104.4557 157.1969,103.7057 157.1969,102.8357 L157.1969,94.3757 L162.7469,94.3757 Z" id="Fill-43" fill="#FFFFFF"></path>
            <path d="M174.9263,100.1956 C174.5963,98.8456 173.6963,98.3956 172.5863,98.3956 C171.3863,98.3956 170.3963,98.9356 169.9763,100.1956 L174.9263,100.1956 Z M172.7963,105.7156 C173.6063,105.7156 174.3563,105.3856 174.5663,104.9656 L179.5763,104.9656 C178.5863,108.4456 175.6463,109.7956 172.4063,109.7956 C167.6063,109.7956 164.4873,106.3456 164.4873,101.8756 C164.4873,97.4056 167.7263,93.9556 172.5263,93.9556 C176.9063,93.9556 180.0863,97.3456 180.0863,101.8156 C180.0863,102.4456 180.0263,103.0456 179.8463,103.7656 L170.0363,103.7656 C170.5763,105.2356 171.7463,105.7156 172.7963,105.7156 L172.7963,105.7156 Z" id="Fill-44" fill="#FFFFFF"></path>
            <path d="M20.8493,117.3855 L20.8493,132.3855 L15.2993,132.3855 L15.2993,131.2755 C14.5193,132.2045 13.3493,132.8045 11.8493,132.8045 C9.0593,132.8045 7.0503,130.7045 7.0503,126.9555 L7.0503,117.3855 L12.5993,117.3855 L12.5993,126.2055 C12.5993,126.9555 13.0193,127.4655 13.8593,127.4655 C14.9093,127.4655 15.2993,126.7155 15.2993,125.8455 L15.2993,117.3855 L20.8493,117.3855 Z" id="Fill-45" fill="#FFFFFF"></path>
            <path d="M37.0488,122.8152 L37.0488,132.3852 L31.4988,132.3852 L31.4988,123.5652 C31.4988,122.8152 31.0788,122.3052 30.2388,122.3052 C29.1888,122.3052 28.7988,123.0552 28.7988,123.9252 L28.7988,132.3852 L23.2498,132.3852 L23.2498,117.3852 L28.7988,117.3852 L28.7988,118.4952 C29.5798,117.5652 30.7488,116.9652 32.2488,116.9652 C35.0388,116.9652 37.0488,119.0652 37.0488,122.8152" id="Fill-46" fill="#FFFFFF"></path>
            <path d="M56.1887,124.8855 C56.1887,123.2955 55.1387,122.1855 53.5187,122.1855 C51.8987,122.1855 50.8487,123.2955 50.8487,124.8855 C50.8487,126.4755 51.8987,127.5855 53.5187,127.5855 C55.1387,127.5855 56.1887,126.4755 56.1887,124.8855 M61.7387,124.8855 C61.7387,129.4155 58.6487,132.8045 54.5687,132.8045 C52.9787,132.8045 51.7487,132.3555 50.8487,131.5745 L50.8487,138.3845 L45.2987,138.3845 L45.2987,117.3855 L50.8487,117.3855 L50.8487,118.1955 C51.7487,117.4155 52.9787,116.9655 54.5687,116.9655 C58.6487,116.9655 61.7387,120.3555 61.7387,124.8855" id="Fill-47" fill="#FFFFFF"></path>
            <path d="M71.1284,128.1253 C71.1284,127.3153 70.4984,126.8653 69.6284,126.8653 C68.6984,126.8653 68.1584,127.3753 68.1584,128.1253 C68.1584,128.8753 68.6984,129.3853 69.6284,129.3853 C70.4984,129.3853 71.1284,128.8753 71.1284,128.1253 M76.4084,122.9353 L76.4084,132.3853 L71.1284,132.3853 L71.1284,131.5153 C70.3184,132.2953 69.3884,132.8053 67.7384,132.8053 C64.7984,132.8053 62.6084,131.2453 62.6084,128.1253 C62.6084,125.0053 64.9184,123.4453 67.8584,123.4453 C69.3884,123.4453 70.3484,123.8353 71.1284,124.3153 L71.1284,122.9353 C71.1284,122.2753 70.8284,121.7353 69.8684,121.7353 C68.9084,121.7353 68.6084,122.2753 68.6084,122.7853 L63.3284,122.7853 C63.3284,118.8853 66.5684,116.9653 69.8684,116.9653 C73.1684,116.9653 76.4084,118.8853 76.4084,122.9353" id="Fill-48" fill="#FFFFFF"></path>
            <path d="M78.659,132.385 L84.209,132.385 L84.209,117.385 L78.659,117.385 L78.659,132.385 Z M78.659,115.886 L79.859,111.386 L86.158,111.386 L83.878,115.886 L78.659,115.886 Z" id="Fill-49" fill="#FFFFFF"></path>
            <path d="M99.208,127.885 C99.208,131.545 95.968,132.805 92.608,132.805 C89.249,132.805 86.009,131.485 86.009,127.435 L91.558,127.435 C91.558,128.335 91.918,128.725 92.608,128.725 C93.298,128.725 93.658,128.455 93.658,127.945 C93.658,126.085 86.099,127.765 86.099,121.885 C86.099,118.376 89.339,116.966 92.548,116.966 C95.758,116.966 98.878,118.586 98.878,122.276 L93.508,122.276 C93.508,121.435 93.148,121.046 92.548,121.046 C92.008,121.046 91.588,121.316 91.588,121.825 C91.588,123.805 99.208,121.825 99.208,127.885" id="Fill-50" fill="#FFFFFF"></path>
            <path d="M127.8574,122.6653 L127.8574,132.3853 L122.3074,132.3853 L122.3074,123.4153 C122.3074,122.6653 121.8874,122.3053 121.3474,122.3053 C120.4474,122.3053 120.2084,123.0553 120.2084,123.9253 L120.2084,132.3853 L114.6584,132.3853 L114.6584,123.4153 C114.6584,122.6653 114.2384,122.3053 113.6984,122.3053 C112.7984,122.3053 112.5584,123.0553 112.5584,123.9253 L112.5584,132.3853 L107.0084,132.3853 L107.0084,117.3853 L112.5584,117.3853 L112.5584,118.5553 C113.3684,117.5953 114.5684,116.9653 116.0084,116.9653 C117.4784,116.9653 118.5874,117.5653 119.3084,118.7353 C120.2684,117.6863 121.5274,116.9653 123.0574,116.9653 C125.9974,116.9653 127.8574,118.9153 127.8574,122.6653" id="Fill-51" fill="#FFFFFF"></path>
            <path d="M139.8877,123.2053 C139.5577,121.8553 138.6577,121.4053 137.5477,121.4053 C136.3477,121.4053 135.3577,121.9453 134.9377,123.2053 L139.8877,123.2053 Z M137.7577,128.7253 C138.5677,128.7253 139.3177,128.3953 139.5277,127.9753 L144.5377,127.9753 C143.5477,131.4553 140.6077,132.8053 137.3677,132.8053 C132.5677,132.8053 129.4487,129.3553 129.4487,124.8853 C129.4487,120.4153 132.6877,116.9653 137.4877,116.9653 C141.8677,116.9653 145.0477,120.3553 145.0477,124.8253 C145.0477,125.4553 144.9877,126.0553 144.8077,126.7753 L134.9977,126.7753 C135.5377,128.2453 136.7077,128.7253 137.7577,128.7253 L137.7577,128.7253 Z" id="Fill-52" fill="#FFFFFF"></path>
            <polygon id="Fill-53" fill="#FFFFFF" points="146.788 132.385 152.338 132.385 152.338 110.786 146.788 110.786"></polygon>
            <polygon id="Fill-54" fill="#FFFFFF" points="154.738 132.385 160.287 132.385 160.287 110.786 154.738 110.786"></polygon>
            <path d="M172.6177,124.8855 C172.6177,123.3255 171.5677,122.2455 170.0977,122.2455 C168.6277,122.2455 167.5777,123.3255 167.5777,124.8855 C167.5777,126.4455 168.6277,127.5255 170.0977,127.5255 C171.5677,127.5255 172.6177,126.4455 172.6177,124.8855 M162.0287,124.8855 C162.0287,120.3855 165.5977,116.9655 170.0977,116.9655 C174.5977,116.9655 178.1677,120.3855 178.1677,124.8855 C178.1677,129.3855 174.5977,132.8045 170.0977,132.8045 C165.6587,132.8045 162.0287,129.3855 162.0287,124.8855" id="Fill-55" fill="#FFFFFF"></path>
            <path d="M189.3574,117.0857 L189.3574,123.0857 C187.4974,122.7857 185.4574,123.5357 185.4574,126.2057 L185.4574,132.3847 L179.9084,132.3847 L179.9084,117.3857 L185.4574,117.3857 L185.4574,119.7557 C185.9674,117.9857 187.4974,117.0857 189.3574,117.0857" id="Fill-56" fill="#FFFFFF"></path>
        </g>
    </g>
</svg>