<?xml version="1.0" encoding="UTF-8" standalone="no"?>
<svg width="199px" height="204px" viewBox="0 0 199 204" version="1.1" xmlns="http://www.w3.org/2000/svg" xmlns:xlink="http://www.w3.org/1999/xlink">
    <!-- Generator: Sketch 39.1 (31720) - http://www.bohemiancoding.com/sketch -->
    <title>program-todos-img</title>
    <desc>Created with Sketch.</desc>
    <defs></defs>
    <g id="Page-1" stroke="none" stroke-width="1" fill="none" fill-rule="evenodd">
        <g id="program-todos-img">
            <polygon id="Fill-1" fill="#004EFF" points="0 138.367 138.367 138.367 138.367 0 0 0"></polygon>
            <polygon id="Fill-2" fill="#00CCCC" points="124.7371 103.2232 130.5101 103.2232 130.5101 96.3282 87.2141 79.0102 43.9191 96.3282 43.9191 103.2232 49.6921 103.2232"></polygon>
            <path d="M182.764,120.972 L193.995,120.972 L193.995,109.833 L182.764,109.833 L182.764,120.972 Z M182.764,137.285 L193.995,137.285 L193.995,126.426 L182.764,126.426 L182.764,137.285 Z M181.467,97.211 C181.467,97.989 180.835,98.621 180.057,98.621 L177.235,98.621 C176.457,98.621 175.825,97.989 175.825,97.211 L175.825,91.097 L169.712,91.097 C168.933,91.097 168.301,90.465 168.301,89.688 L168.301,86.864 C168.301,86.086 168.933,85.454 169.712,85.454 L175.825,85.454 L175.825,79.34 C175.825,78.563 176.457,77.931 177.235,77.931 L180.057,77.931 C180.835,77.931 181.467,78.563 181.467,79.34 L181.467,85.454 L187.58,85.454 C188.359,85.454 188.991,86.086 188.991,86.864 L188.991,89.688 C188.991,90.465 188.359,91.097 187.58,91.097 L181.467,91.097 L181.467,97.211 Z M164.814,120.972 L176.045,120.972 L176.045,109.833 L164.814,109.833 L164.814,120.972 Z M164.814,137.285 L176.045,137.285 L176.045,126.426 L164.814,126.426 L164.814,137.285 Z M146.865,86.196 L158.096,86.196 L158.096,75.057 L146.865,75.057 L146.865,86.196 Z M146.865,103.659 L158.096,103.659 L158.096,92.52 L146.865,92.52 L146.865,103.659 Z M146.865,120.972 L158.096,120.972 L158.096,109.833 L146.865,109.833 L146.865,120.972 Z M146.865,137.285 L158.096,137.285 L158.096,126.426 L146.865,126.426 L146.865,137.285 Z M138.367,65.217 L138.367,138.501 L118.964,138.487 L118.964,107.873 L107.419,107.873 L107.419,138.479 L101.646,138.475 L101.646,107.873 L90.101,107.873 L90.101,138.467 L84.328,138.463 L84.328,107.873 L72.783,107.873 L72.783,138.456 L67.01,138.456 L67.01,107.873 L55.465,107.873 L55.465,138.456 L32.548,138.456 L32.548,203.563 L76.593,203.563 C76.819,182.782 93.727,166.003 114.562,166.003 C135.396,166.003 152.304,182.782 152.53,203.563 L198.822,203.563 L198.822,177.745 L198.822,176.668 L198.822,65.217 L138.367,65.217 Z" id="Fill-3" fill="#00CCCC"></path>
        </g>
    </g>
</svg>