<?xml version="1.0" encoding="UTF-8" standalone="no"?>
<svg width="276px" height="179px" viewBox="0 0 276 179" version="1.1" xmlns="http://www.w3.org/2000/svg" xmlns:xlink="http://www.w3.org/1999/xlink">
    <!-- Generator: Sketch 39.1 (31720) - http://www.bohemiancoding.com/sketch -->
    <title>program-economia</title>
    <desc>Created with Sketch.</desc>
    <defs></defs>
    <g id="Page-1" stroke="none" stroke-width="1" fill="none" fill-rule="evenodd">
        <g id="program-economia">
            <polygon class="is-green" id="Fill-1" fill="#00CCCC" points="69.004 178.5 116.005 178.5 116.005 68.217 69.004 68.217"></polygon>
            <polygon class="is-green" id="Fill-2" fill="#00CCCC" points="124.336 178.5 168.504 178.5 168.504 53.833 124.336 53.833"></polygon>
            <polygon class="is-blue" id="Fill-3" fill="#004EFF" points="0 97.4694 0 120.4694 0 132.4694 0 143.4694 0 155.4694 0 178.4694 125.489 178.4694 125.489 155.4694 147.269 155.4694 147.269 132.4694 168.088 132.4694 168.088 97.4694"></polygon>
            <path d="M17.6399,117.4695 L15.8999,111.0195 L14.1599,117.4695 L17.6399,117.4695 Z M18.9299,122.2695 L12.8699,122.2695 L12.1499,124.9695 L5.6999,124.9695 L12.5399,103.9705 L19.2599,103.9705 L26.0989,124.9695 L19.6499,124.9695 L18.9299,122.2695 Z" id="Fill-4" fill="#FFFFFF"></path>
            <path d="M42.7793,115.7896 C42.4493,114.4396 41.5493,113.9896 40.4393,113.9896 C39.2393,113.9896 38.2493,114.5296 37.8293,115.7896 L42.7793,115.7896 L42.7793,115.7896 Z M40.6493,121.3096 C41.4593,121.3096 42.2093,120.9796 42.4193,120.5596 L47.4293,120.5596 C46.4393,124.0396 43.4993,125.3896 40.2593,125.3896 C35.4593,125.3896 32.3403,121.9396 32.3403,117.4696 C32.3403,112.9996 35.5793,109.5496 40.3793,109.5496 C44.7593,109.5496 47.9393,112.9396 47.9393,117.4096 C47.9393,118.0396 47.8793,118.6396 47.6993,119.3596 L37.8893,119.3596 C38.4293,120.8296 39.5993,121.3096 40.6493,121.3096 L40.6493,121.3096 Z" id="Fill-5" fill="#FFFFFF"></path>
            <path d="M57.0293,125.3892 C52.4393,125.3892 49.0193,121.9692 49.0193,117.4692 C49.0193,112.9702 52.4393,109.5502 57.0293,109.5502 C61.0493,109.5502 64.3793,112.3692 64.7993,116.2692 L59.0693,116.2692 C58.8293,115.4302 58.0193,114.8892 57.0293,114.8892 C55.6193,114.8892 54.5693,115.9702 54.5693,117.4692 C54.5693,118.9692 55.6193,120.0492 57.0293,120.0492 C58.0193,120.0492 58.8593,119.5092 59.0993,118.6692 L64.7993,118.6692 C64.3793,122.5692 61.0793,125.3892 57.0293,125.3892" id="Fill-7" fill="#FFFFFF"></path>
            <path d="M76.229,117.4695 C76.229,115.9095 75.179,114.8295 73.709,114.8295 C72.239,114.8295 71.189,115.9095 71.189,117.4695 C71.189,119.0295 72.239,120.1095 73.709,120.1095 C75.179,120.1095 76.229,119.0295 76.229,117.4695 M65.639,117.4695 C65.639,112.9695 69.209,109.5495 73.709,109.5495 C78.209,109.5495 81.779,112.9695 81.779,117.4695 C81.779,121.9695 78.209,125.3895 73.709,125.3895 C69.269,125.3895 65.639,121.9695 65.639,117.4695" id="Fill-9" fill="#FFFFFF"></path>
            <path d="M97.3186,115.3997 L97.3186,124.9697 L91.7686,124.9697 L91.7686,116.1497 C91.7686,115.3997 91.3486,114.8897 90.5086,114.8897 C89.4586,114.8897 89.0686,115.6397 89.0686,116.5097 L89.0686,124.9697 L83.5186,124.9697 L83.5186,109.9697 L89.0686,109.9697 L89.0686,111.0797 C89.8486,110.1497 91.0186,109.5497 92.5186,109.5497 C95.3086,109.5497 97.3186,111.6497 97.3186,115.3997" id="Fill-11" fill="#FFFFFF"></path>
            <path d="M109.4983,117.4695 C109.4983,115.9095 108.4483,114.8295 106.9783,114.8295 C105.5083,114.8295 104.4583,115.9095 104.4583,117.4695 C104.4583,119.0295 105.5083,120.1095 106.9783,120.1095 C108.4483,120.1095 109.4983,119.0295 109.4983,117.4695 M98.9083,117.4695 C98.9083,112.9695 102.4783,109.5495 106.9783,109.5495 C111.4783,109.5495 115.0483,112.9695 115.0483,117.4695 C115.0483,121.9695 111.4783,125.3895 106.9783,125.3895 C102.5383,125.3895 98.9083,121.9695 98.9083,117.4695" id="Fill-13" fill="#FFFFFF"></path>
            <path d="M137.6375,115.2496 L137.6375,124.9696 L132.0875,124.9696 L132.0875,115.9996 C132.0875,115.2496 131.6675,114.8896 131.1275,114.8896 C130.2275,114.8896 129.9875,115.6396 129.9875,116.5096 L129.9875,124.9696 L124.4385,124.9696 L124.4385,115.9996 C124.4385,115.2496 124.0185,114.8896 123.4785,114.8896 C122.5785,114.8896 122.3385,115.6396 122.3385,116.5096 L122.3385,124.9696 L116.7885,124.9696 L116.7885,109.9696 L122.3385,109.9696 L122.3385,111.1396 C123.1485,110.1796 124.3475,109.5496 125.7875,109.5496 C127.2575,109.5496 128.3675,110.1496 129.0875,111.3196 C130.0475,110.2696 131.3075,109.5496 132.8375,109.5496 C135.7775,109.5496 137.6375,111.4996 137.6375,115.2496" id="Fill-15" fill="#FFFFFF"></path>
            <path d="M139.888,124.969 L145.438,124.969 L145.438,109.969 L139.888,109.969 L139.888,124.969 Z M139.888,108.47 L141.088,103.97 L147.388,103.97 L145.108,108.47 L139.888,108.47 Z" id="Fill-17" fill="#FFFFFF"></path>
            <path d="M155.7576,120.7095 C155.7576,119.8995 155.1276,119.4495 154.2576,119.4495 C153.3276,119.4495 152.7876,119.9595 152.7876,120.7095 C152.7876,121.4595 153.3276,121.9695 154.2576,121.9695 C155.1276,121.9695 155.7576,121.4595 155.7576,120.7095 M161.0376,115.5195 L161.0376,124.9695 L155.7576,124.9695 L155.7576,124.0995 C154.9476,124.8795 154.0176,125.3895 152.3676,125.3895 C149.4276,125.3895 147.2376,123.8295 147.2376,120.7095 C147.2376,117.5895 149.5476,116.0295 152.4876,116.0295 C154.0176,116.0295 154.9776,116.4195 155.7576,116.8995 L155.7576,115.5195 C155.7576,114.8595 155.4576,114.3195 154.4976,114.3195 C153.5376,114.3195 153.2376,114.8595 153.2376,115.3695 L147.9576,115.3695 C147.9576,111.4695 151.1976,109.5495 154.4976,109.5495 C157.7976,109.5495 161.0376,111.4695 161.0376,115.5195" id="Fill-19" fill="#FFFFFF"></path>
            <path d="M15.1199,143.7195 C15.1199,142.9095 14.4899,142.4595 13.6199,142.4595 C12.6899,142.4595 12.1499,142.9695 12.1499,143.7195 C12.1499,144.4695 12.6899,144.9795 13.6199,144.9795 C14.4899,144.9795 15.1199,144.4695 15.1199,143.7195 M20.3999,138.5295 L20.3999,147.9795 L15.1199,147.9795 L15.1199,147.1095 C14.3099,147.8895 13.3799,148.3995 11.7299,148.3995 C8.7899,148.3995 6.5999,146.8395 6.5999,143.7195 C6.5999,140.5995 8.9099,139.0395 11.8499,139.0395 C13.3799,139.0395 14.3399,139.4295 15.1199,139.9095 L15.1199,138.5295 C15.1199,137.8695 14.8199,137.3295 13.8599,137.3295 C12.8999,137.3295 12.5999,137.8695 12.5999,138.3795 L7.3199,138.3795 C7.3199,134.4795 10.5599,132.5595 13.8599,132.5595 C17.1599,132.5595 20.3999,134.4795 20.3999,138.5295" id="Fill-20" fill="#FFFFFF"></path>
            <path d="M32.5798,140.4796 C32.5798,138.9196 31.5298,137.8396 30.0598,137.8396 C28.5898,137.8396 27.5398,138.9196 27.5398,140.4796 C27.5398,142.0396 28.5898,143.1196 30.0598,143.1196 C31.5298,143.1196 32.5798,142.0396 32.5798,140.4796 M21.9898,140.4796 C21.9898,135.9796 25.5598,132.5596 30.0598,132.5596 C34.5598,132.5596 38.1298,135.9796 38.1298,140.4796 C38.1298,144.9796 34.5598,148.3996 30.0598,148.3996 C25.6198,148.3996 21.9898,144.9796 21.9898,140.4796" id="Fill-21" fill="#FFFFFF"></path>
            <path d="M58.469,143.4796 C58.469,147.1396 55.229,148.3996 51.869,148.3996 C48.51,148.3996 45.27,147.0796 45.27,143.0296 L50.819,143.0296 C50.819,143.9296 51.179,144.3196 51.869,144.3196 C52.559,144.3196 52.919,144.0496 52.919,143.5396 C52.919,141.6796 45.36,143.3596 45.36,137.4796 C45.36,133.9696 48.6,132.5596 51.809,132.5596 C55.019,132.5596 58.139,134.1796 58.139,137.8696 L52.769,137.8696 C52.769,137.0296 52.409,136.6396 51.809,136.6396 C51.269,136.6396 50.849,136.9096 50.849,137.4196 C50.849,139.3996 58.469,137.4196 58.469,143.4796" id="Fill-22" fill="#FFFFFF"></path>
            <path d="M69.7791,138.7996 C69.4491,137.4496 68.5491,136.9996 67.4391,136.9996 C66.2391,136.9996 65.2491,137.5396 64.8291,138.7996 L69.7791,138.7996 Z M67.6491,144.3196 C68.4591,144.3196 69.2091,143.9896 69.4191,143.5696 L74.4291,143.5696 C73.4391,147.0496 70.4991,148.3996 67.2591,148.3996 C62.4591,148.3996 59.3401,144.9496 59.3401,140.4796 C59.3401,136.0096 62.5791,132.5596 67.3791,132.5596 C71.7591,132.5596 74.9391,135.9496 74.9391,140.4196 C74.9391,141.0496 74.8791,141.6496 74.6991,142.3696 L64.8891,142.3696 C65.4291,143.8396 66.5991,144.3196 67.6491,144.3196 L67.6491,144.3196 Z" id="Fill-23" fill="#FFFFFF"></path>
            <path d="M86.1292,132.68 L86.1292,138.68 C84.2692,138.38 82.2292,139.13 82.2292,141.8 L82.2292,147.979 L76.6792,147.979 L76.6792,132.98 L82.2292,132.98 L82.2292,135.35 C82.7392,133.58 84.2692,132.68 86.1292,132.68" id="Fill-24" fill="#FFFFFF"></path>
            <polygon id="Fill-25" fill="#FFFFFF" points="103.0784 132.98 97.5284 147.979 92.2784 147.979 91.8284 147.979 86.2794 132.98 92.1294 132.98 94.6784 140.72 97.2284 132.98"></polygon>
            <path d="M104.279,147.979 L109.829,147.979 L109.829,132.98 L104.279,132.98 L104.279,147.979 Z M104.279,131.48 L109.829,131.48 L109.829,126.98 L104.279,126.98 L104.279,131.48 Z" id="Fill-26" fill="#FFFFFF"></path>
            <polygon id="Fill-27" fill="#FFFFFF" points="124.2285 142.8795 124.2285 147.9795 111.6295 147.9795 111.6295 144.0795 116.5485 138.0795 111.9285 138.0795 111.9285 132.9805 123.9285 132.9805 123.9285 136.8795 119.0085 142.8795"></polygon>
            <path d="M135.2383,140.4796 C135.2383,138.9196 134.1883,137.8396 132.7183,137.8396 C131.2483,137.8396 130.1983,138.9196 130.1983,140.4796 C130.1983,142.0396 131.2483,143.1196 132.7183,143.1196 C134.1883,143.1196 135.2383,142.0396 135.2383,140.4796 M124.6483,140.4796 C124.6483,135.9796 128.2183,132.5596 132.7183,132.5596 C137.2183,132.5596 140.7883,135.9796 140.7883,140.4796 C140.7883,144.9796 137.2183,148.3996 132.7183,148.3996 C128.2783,148.3996 124.6483,144.9796 124.6483,140.4796" id="Fill-28" fill="#FFFFFF"></path>
            <path d="M17.4297,163.4896 C17.4297,161.8996 16.3797,160.7896 14.7597,160.7896 C13.1397,160.7896 12.0897,161.8996 12.0897,163.4896 C12.0897,165.0796 13.1397,166.1896 14.7597,166.1896 C16.3797,166.1896 17.4297,165.0796 17.4297,163.4896 L17.4297,163.4896 Z M22.9797,149.9906 L22.9797,170.9896 L17.4297,170.9896 L17.4297,170.1796 C16.5297,170.9596 15.2997,171.4096 13.7097,171.4096 C9.6297,171.4096 6.5407,168.0196 6.5407,163.4896 C6.5407,158.9596 9.6297,155.5696 13.7097,155.5696 C15.2997,155.5696 16.5297,156.0196 17.4297,156.7996 L17.4297,149.9906 L22.9797,149.9906 Z" id="Fill-29" fill="#FFFFFF"></path>
            <path d="M33.2993,166.7296 C33.2993,165.9196 32.6693,165.4696 31.7993,165.4696 C30.8693,165.4696 30.3293,165.9796 30.3293,166.7296 C30.3293,167.4796 30.8693,167.9896 31.7993,167.9896 C32.6693,167.9896 33.2993,167.4796 33.2993,166.7296 M38.5793,161.5396 L38.5793,170.9896 L33.2993,170.9896 L33.2993,170.1196 C32.4893,170.8996 31.5593,171.4096 29.9093,171.4096 C26.9693,171.4096 24.7793,169.8496 24.7793,166.7296 C24.7793,163.6096 27.0893,162.0496 30.0293,162.0496 C31.5593,162.0496 32.5193,162.4396 33.2993,162.9196 L33.2993,161.5396 C33.2993,160.8796 32.9993,160.3396 32.0393,160.3396 C31.0793,160.3396 30.7793,160.8796 30.7793,161.3896 L25.4993,161.3896 C25.4993,157.4896 28.7393,155.5696 32.0393,155.5696 C35.3393,155.5696 38.5793,157.4896 38.5793,161.5396" id="Fill-30" fill="#FFFFFF"></path>
            <polygon id="Fill-31" fill="#FFFFFF" points="55.6792 170.9893 53.5792 167.7793 51.4792 170.9893 45.6292 170.9893 50.6692 163.3093 45.8692 155.9893 51.7192 155.9893 53.5792 158.8403 55.4392 155.9893 61.2892 155.9893 56.5192 163.3093 61.5292 170.9893"></polygon>
            <path d="M71.1592,161.8096 C70.8292,160.4596 69.9292,160.0096 68.8192,160.0096 C67.6192,160.0096 66.6292,160.5496 66.2092,161.8096 L71.1592,161.8096 Z M69.0292,167.3296 C69.8392,167.3296 70.5892,166.9996 70.7992,166.5796 L75.8092,166.5796 C74.8192,170.0596 71.8792,171.4096 68.6392,171.4096 C63.8392,171.4096 60.7202,167.9596 60.7202,163.4896 C60.7202,159.0196 63.9592,155.5696 68.7592,155.5696 C73.1392,155.5696 76.3192,158.9596 76.3192,163.4296 C76.3192,164.0596 76.2592,164.6596 76.0792,165.3796 L66.2692,165.3796 C66.8092,166.8496 67.9792,167.3296 69.0292,167.3296 L69.0292,167.3296 Z" id="Fill-32" fill="#FFFFFF"></path>
            <path d="M91.8591,161.4197 L91.8591,170.9897 L86.3091,170.9897 L86.3091,162.1697 C86.3091,161.4197 85.8891,160.9097 85.0491,160.9097 C83.9991,160.9097 83.6091,161.6597 83.6091,162.5297 L83.6091,170.9897 L78.0591,170.9897 L78.0591,155.9897 L83.6091,155.9897 L83.6091,157.0997 C84.3891,156.1697 85.5591,155.5697 87.0591,155.5697 C89.8491,155.5697 91.8591,157.6697 91.8591,161.4197" id="Fill-33" fill="#FFFFFF"></path>
            <polygon id="Fill-34" fill="#FFFFFF" points="102.8088 161.2696 100.7988 161.2696 100.7988 170.9896 95.2488 170.9896 95.2488 161.2696 93.2088 161.2696 93.2088 155.9896 95.2488 155.9896 95.2488 151.1896 100.7988 151.1896 100.7988 155.9896 102.8088 155.9896"></polygon>
            <path d="M113.8186,161.8096 C113.4886,160.4596 112.5886,160.0096 111.4786,160.0096 C110.2786,160.0096 109.2886,160.5496 108.8686,161.8096 L113.8186,161.8096 Z M111.6886,167.3296 C112.4986,167.3296 113.2486,166.9996 113.4586,166.5796 L118.4686,166.5796 C117.4786,170.0596 114.5386,171.4096 111.2986,171.4096 C106.4986,171.4096 103.3796,167.9596 103.3796,163.4896 C103.3796,159.0196 106.6186,155.5696 111.4186,155.5696 C115.7986,155.5696 118.9786,158.9596 118.9786,163.4296 C118.9786,164.0596 118.9186,164.6596 118.7386,165.3796 L108.9286,165.3796 C109.4686,166.8496 110.6386,167.3296 111.6886,167.3296 L111.6886,167.3296 Z" id="Fill-35" fill="#FFFFFF"></path>
            <path d="M96.6721,23.8662 C96.1281,23.8402 95.5571,23.8142 95.0131,23.8142 C94.4691,23.8142 93.8981,23.8402 93.3541,23.8662 L93.3541,21.3252 C93.3541,20.4182 94.1061,19.6662 95.0131,19.6662 C95.9201,19.6662 96.6721,20.4182 96.6721,21.3252 L96.6721,23.8662 Z M96.6721,54.5062 C96.6721,58.1092 93.6391,61.1422 90.0361,61.1422 C86.4321,61.1422 83.4001,58.1092 83.4001,54.5062 C83.4001,53.5992 84.1511,52.8472 85.0591,52.8472 C85.9661,52.8472 86.7181,53.5992 86.7181,54.5062 C86.7181,56.2432 88.2991,57.8242 90.0361,57.8242 C91.7721,57.8242 93.3541,56.2432 93.3541,54.5062 L93.3541,39.4712 C93.8981,39.2902 94.4431,39.1862 95.0131,39.1862 C95.5831,39.1862 96.1281,39.2902 96.6721,39.4712 L96.6721,54.5062 Z M115.7511,41.0002 C115.5171,41.0002 115.3361,40.8972 115.1551,40.7412 C113.6511,39.3412 112.2521,38.3572 110.1001,38.3572 C107.6371,38.3572 105.5121,39.8862 104.1121,41.8302 C103.8011,42.2712 103.5671,42.7372 103.2821,43.1782 C103.1011,43.4632 102.8941,43.6192 102.5561,43.6192 C102.1941,43.6192 101.9861,43.4632 101.8051,43.1782 C101.5191,42.7372 101.2861,42.2712 100.9751,41.8302 C99.5751,39.8862 97.4751,38.3572 95.0131,38.3572 C92.5511,38.3572 90.4501,39.8862 89.0511,41.8302 C88.7401,42.2712 88.5071,42.7372 88.2211,43.1782 C88.0401,43.4632 87.8321,43.6192 87.4691,43.6192 C87.1321,43.6192 86.9251,43.4632 86.7441,43.1782 C86.4591,42.7372 86.2251,42.2712 85.9141,41.8302 C84.5141,39.8862 82.3891,38.3572 79.9261,38.3572 C77.7751,38.3572 76.3751,39.3412 74.8711,40.7412 C74.6901,40.8972 74.5081,41.0002 74.2751,41.0002 C73.8341,41.0002 73.4451,40.6122 73.4451,40.1712 C73.4451,40.0932 73.4451,40.0412 73.4711,39.9892 C75.8561,30.1912 85.3181,24.6442 95.0131,24.6442 C104.6561,24.6442 114.2211,30.1912 116.5551,39.9892 C116.5801,40.0412 116.5801,40.0932 116.5801,40.1712 C116.5801,40.6122 116.1921,41.0002 115.7511,41.0002 L115.7511,41.0002 Z" id="Fill-36" class="is-green" fill="#00CCCC"></path>
            <polygon id="Fill-37" class="is-green" fill="#00CCCC" points="175.337 178.5 222.337 178.5 222.337 64.739 175.337 64.739"></polygon>
            <polygon id="Fill-38" class="is-green" fill="#00CCCC" points="229.337 178.5 276.337 178.5 276.337 40.883 229.337 40.883"></polygon>
            <path d="M207.3294,30.5456 C204.4794,30.5456 201.2664,33.6246 200.2714,34.8106 C199.8124,35.3656 198.8564,35.3656 198.3974,34.8106 C197.4034,33.6246 194.1894,30.5456 191.3394,30.5456 C188.2794,30.5456 184.6454,31.6746 184.6454,37.0486 C184.6454,40.5486 188.1844,43.7996 188.2224,43.8376 L199.3344,54.5486 L210.4274,43.8576 C210.4854,43.7996 214.0234,40.5486 214.0234,37.0486 C214.0234,31.6746 210.3894,30.5456 207.3294,30.5456 M212.0914,45.6556 L200.1764,57.1306 C199.9464,57.3606 199.6404,57.4746 199.3344,57.4746 C199.0284,57.4746 198.7224,57.3606 198.4934,57.1306 L186.5584,45.6166 C186.4054,45.4836 182.1974,41.6386 182.1974,37.0486 C182.1974,31.4446 185.6214,28.0976 191.3394,28.0976 C194.6874,28.0976 197.8234,30.7366 199.3344,32.2286 C200.8454,30.7366 203.9824,28.0976 207.3294,28.0976 C213.0484,28.0976 216.4714,31.4446 216.4714,37.0486 C216.4714,41.6386 212.2634,45.4836 212.0914,45.6556" id="Fill-39" fill="#00CCCC"></path>
            <path d="M267.0479,30.6421 C267.0479,31.5211 266.3199,32.2491 265.4409,32.2491 L255.7969,32.2491 L255.7969,22.6061 L249.3679,22.6061 L249.3679,32.2491 L239.7239,32.2491 C238.8449,32.2491 238.1169,31.5211 238.1169,30.6421 L238.1169,18.5871 C238.1169,18.5371 238.1419,18.4871 238.1419,18.4371 L252.5829,6.5331 L267.0229,18.4371 C267.0479,18.4871 267.0479,18.5371 267.0479,18.5871 L267.0479,30.6421 Z M271.0909,18.7131 C270.9659,18.8641 270.7649,18.9641 270.5639,18.9891 L270.4889,18.9891 C270.2879,18.9891 270.1119,18.9391 269.9609,18.8141 L252.5829,4.3231 L235.2039,18.8141 C235.0279,18.9391 234.8269,19.0141 234.6009,18.9891 C234.3999,18.9641 234.1989,18.8641 234.0739,18.7131 L232.5169,16.8551 C232.2409,16.5281 232.2909,16.0011 232.6169,15.7251 L250.6739,0.6811 C251.7289,-0.1969 253.4369,-0.1969 254.4909,0.6811 L260.6189,5.8051 L260.6189,0.9081 C260.6189,0.4561 260.9709,0.1041 261.4229,0.1041 L266.2439,0.1041 C266.6959,0.1041 267.0479,0.4561 267.0479,0.9081 L267.0479,11.1541 L272.5479,15.7251 C272.8739,16.0011 272.9249,16.5281 272.6479,16.8551 L271.0909,18.7131 Z" id="Fill-40" class="is-green" fill="#00CCCC"></path>
            <path d="M146.3844,11.6178 C143.1684,11.6178 140.5754,9.0248 140.5754,5.8088 C140.5754,2.5938 143.1684,-0.0002 146.3844,-0.0002 C149.6004,-0.0002 152.1934,2.5938 152.1934,5.8088 C152.1934,9.0248 149.6004,11.6178 146.3844,11.6178 L146.3844,11.6178 L146.3844,11.6178 Z M159.6614,28.2148 C159.6614,29.5888 158.5464,30.7038 157.1724,30.7038 C155.7974,30.7038 154.6824,29.5888 154.6824,28.2148 L154.6824,19.0858 L153.0234,19.0858 L153.0234,42.7368 C153.0234,44.3438 151.7264,45.6408 150.1184,45.6408 C148.5104,45.6408 147.2144,44.3438 147.2144,42.7368 L147.2144,30.7038 L145.5544,30.7038 L145.5544,42.7368 C145.5544,44.3438 144.2584,45.6408 142.6504,45.6408 C141.0424,45.6408 139.7454,44.3438 139.7454,42.7368 L139.7454,19.0858 L138.0864,19.0858 L138.0864,28.2148 C138.0864,29.5888 136.9714,30.7038 135.5964,30.7038 C134.2224,30.7038 133.1074,29.5888 133.1074,28.2148 L133.1074,17.4268 C133.1074,14.6778 135.3374,12.4478 138.0864,12.4478 L154.6824,12.4478 C157.4314,12.4478 159.6614,14.6778 159.6614,17.4268 L159.6614,28.2148 L159.6614,28.2148 Z" id="Fill-41" class="is-green" fill="#00CCCC"></path>
        </g>
    </g>
</svg>