<?xml version="1.0" encoding="UTF-8" standalone="no"?>
<svg width="226px" height="167px" viewBox="0 0 226 167" version="1.1" xmlns="http://www.w3.org/2000/svg" xmlns:xlink="http://www.w3.org/1999/xlink">
    <!-- Generator: Sketch 39.1 (31720) - http://www.bohemiancoding.com/sketch -->
    <title>program-territorio-img</title>
    <desc>Created with Sketch.</desc>
    <defs></defs>
    <g id="Page-1" stroke="none" stroke-width="1" fill="none" fill-rule="evenodd">
        <g id="program-territorio-img">
            <polygon id="Fill-1" fill="#004EFF" points="0.74 166.149 200.582 166.149 200.582 30.126 0.74 30.126"></polygon>
            <polygon id="Fill-2" fill="#00CCCC" points="38.3967 136.17 -0.0003 166.149 200.5817 166.149 200.5817 136.17"></polygon>
            <polygon id="Fill-3" fill="#00CCCC" points="39.024 0 0.627 30.13 200.624 30.13 225.432 1.066"></polygon>
            <path d="M173.2715,115.3333 L134.2565,115.3333 C125.3995,115.3333 118.1915,108.1253 118.1915,99.2683 C118.1915,93.0283 121.8125,87.3633 127.4435,84.7453 C127.4065,84.2073 127.3715,83.7053 127.3715,83.2033 C127.3715,73.0543 135.5825,64.8433 145.7315,64.8433 C153.1895,64.8433 159.8955,69.3613 162.7285,76.2463 C164.3785,74.8113 166.4945,74.0233 168.6815,74.0233 C173.7375,74.0233 177.8615,78.1463 177.8615,83.2033 C177.8615,84.9603 177.3595,86.6813 176.3915,88.1513 C182.6305,89.6213 187.0415,95.1803 187.0415,101.5633 C187.0415,109.1653 180.8735,115.3333 173.2715,115.3333" id="Fill-4" fill="#FFFFFF"></path>
            <path d="M104.6347,114.771 L82.8157,114.771 C77.8627,114.771 73.8317,110.74 73.8317,105.787 C73.8317,102.297 75.8567,99.129 79.0057,97.665 C78.9857,97.364 78.9657,97.083 78.9657,96.803 C78.9657,91.127 83.5577,86.535 89.2337,86.535 C93.4047,86.535 97.1547,89.062 98.7387,92.912 C99.6617,92.11 100.8447,91.669 102.0677,91.669 C104.8957,91.669 107.2017,93.975 107.2017,96.803 C107.2017,97.785 106.9207,98.748 106.3797,99.57 C109.8687,100.392 112.3357,103.501 112.3357,107.07 C112.3357,111.322 108.8867,114.771 104.6347,114.771" id="Fill-6" fill="#FFFFFF"></path>
        </g>
    </g>
</svg>