<?xml version="1.0" encoding="UTF-8" standalone="no"?>
<svg width="266px" height="172px" viewBox="0 0 266 172" version="1.1" xmlns="http://www.w3.org/2000/svg" xmlns:xlink="http://www.w3.org/1999/xlink">
    <!-- Generator: Sketch 39.1 (31720) - http://www.bohemiancoding.com/sketch -->
    <title>program-economia-img</title>
    <desc>Created with Sketch.</desc>
    <defs></defs>
    <g id="Page-1" stroke="none" stroke-width="1" fill="none" fill-rule="evenodd">
        <g id="program-economia-img">
            <polygon id="Fill-1" fill="#00CCCC" points="0 170.5566 201.233 170.5566 265.921 127.4016 79.242 126.2616"></polygon>
            <polygon id="Fill-2" fill="#004EFF" points="1.039 171.975 46.058 171.975 46.058 66.341 1.039 66.341"></polygon>
            <polygon id="Fill-3" fill="#004EFF" points="54.039 171.975 96.344 171.975 96.344 52.564 54.039 52.564"></polygon>
            <path d="M27.5404,23.8598 C27.0194,23.8348 26.4724,23.8098 25.9514,23.8098 C25.4294,23.8098 24.8834,23.8348 24.3624,23.8598 L24.3624,21.4268 C24.3624,20.5568 25.0824,19.8368 25.9514,19.8368 C26.8204,19.8368 27.5404,20.5568 27.5404,21.4268 L27.5404,23.8598 L27.5404,23.8598 Z M27.5404,53.2088 C27.5404,56.6598 24.6354,59.5648 21.1844,59.5648 C17.7324,59.5648 14.8274,56.6598 14.8274,53.2088 C14.8274,52.3388 15.5474,51.6188 16.4164,51.6188 C17.2854,51.6188 18.0054,52.3388 18.0054,53.2088 C18.0054,54.8718 19.5204,56.3868 21.1844,56.3868 C22.8474,56.3868 24.3624,54.8718 24.3624,53.2088 L24.3624,38.8068 C24.8834,38.6338 25.4054,38.5338 25.9514,38.5338 C26.4974,38.5338 27.0194,38.6338 27.5404,38.8068 L27.5404,53.2088 L27.5404,53.2088 Z M45.8154,40.2718 C45.5914,40.2718 45.4174,40.1728 45.2434,40.0238 C43.8034,38.6828 42.4634,37.7398 40.4024,37.7398 C38.0434,37.7398 36.0074,39.2038 34.6664,41.0668 C34.3684,41.4888 34.1444,41.9358 33.8724,42.3578 C33.6984,42.6308 33.4994,42.7798 33.1764,42.7798 C32.8294,42.7798 32.6304,42.6308 32.4564,42.3578 C32.1834,41.9358 31.9604,41.4888 31.6624,41.0668 C30.3214,39.2038 28.3104,37.7398 25.9514,37.7398 C23.5924,37.7398 21.5814,39.2038 20.2404,41.0668 C19.9424,41.4888 19.7194,41.9358 19.4454,42.3578 C19.2724,42.6308 19.0734,42.7798 18.7254,42.7798 C18.4034,42.7798 18.2044,42.6308 18.0304,42.3578 C17.7574,41.9358 17.5334,41.4888 17.2364,41.0668 C15.8954,39.2038 13.8594,37.7398 11.5004,37.7398 C9.4394,37.7398 8.0984,38.6828 6.6584,40.0238 C6.4854,40.1728 6.3114,40.2718 6.0874,40.2718 C5.6654,40.2718 5.2934,39.8998 5.2934,39.4778 C5.2934,39.4028 5.2934,39.3538 5.3174,39.3038 C7.6024,29.9178 16.6644,24.6048 25.9514,24.6048 C35.1874,24.6048 44.3504,29.9178 46.5844,39.3038 C46.6094,39.3538 46.6094,39.4028 46.6094,39.4778 C46.6094,39.8998 46.2374,40.2718 45.8154,40.2718 L45.8154,40.2718 Z" id="Fill-4" fill="#00CCCC"></path>
            <polygon id="Fill-6" fill="#004EFF" points="102.889 171.975 147.908 171.975 147.908 63.01 102.889 63.01"></polygon>
            <polygon id="Fill-8" fill="#004EFF" points="154.613 171.975 199.632 171.975 199.632 40.16 154.613 40.16"></polygon>
            <path d="M133.533,30.2576 C130.803,30.2576 127.725,33.2066 126.773,34.3426 C126.333,34.8746 125.417,34.8746 124.978,34.3426 C124.025,33.2066 120.947,30.2576 118.217,30.2576 C115.286,30.2576 111.806,31.3386 111.806,36.4866 C111.806,39.8386 115.195,42.9536 115.232,42.9896 L125.875,53.2486 L136.501,43.0086 C136.556,42.9536 139.945,39.8386 139.945,36.4866 C139.945,31.3386 136.464,30.2576 133.533,30.2576 M138.095,44.7306 L126.681,55.7226 C126.461,55.9416 126.168,56.0516 125.875,56.0516 C125.582,56.0516 125.289,55.9416 125.069,55.7226 L113.638,44.6936 C113.491,44.5656 109.461,40.8826 109.461,36.4866 C109.461,31.1186 112.74,27.9126 118.217,27.9126 C121.424,27.9126 124.428,30.4406 125.875,31.8696 C127.322,30.4406 130.327,27.9126 133.533,27.9126 C139.011,27.9126 142.29,31.1186 142.29,36.4866 C142.29,40.8826 138.259,44.5656 138.095,44.7306" id="Fill-9" fill="#00CCCC"></path>
            <path d="M190.734,30.3501 C190.734,31.1921 190.036,31.8901 189.194,31.8901 L179.957,31.8901 L179.957,22.6521 L173.799,22.6521 L173.799,31.8901 L164.562,31.8901 C163.72,31.8901 163.023,31.1921 163.023,30.3501 L163.023,18.8041 C163.023,18.7551 163.047,18.7071 163.047,18.6591 L176.878,7.2571 L190.71,18.6591 C190.734,18.7071 190.734,18.7551 190.734,18.8041 L190.734,30.3501 Z M194.607,18.9241 C194.487,19.0681 194.294,19.1641 194.102,19.1881 L194.03,19.1881 C193.837,19.1881 193.669,19.1401 193.524,19.0201 L176.878,5.1401 L160.232,19.0201 C160.064,19.1401 159.872,19.2131 159.655,19.1881 C159.463,19.1641 159.27,19.0681 159.15,18.9241 L157.658,17.1441 C157.394,16.8311 157.442,16.3261 157.755,16.0611 L175.05,1.6521 C176.06,0.8111 177.696,0.8111 178.706,1.6521 L184.576,6.5601 L184.576,1.8691 C184.576,1.4361 184.913,1.0991 185.346,1.0991 L189.964,1.0991 C190.397,1.0991 190.734,1.4361 190.734,1.8691 L190.734,11.6831 L196.002,16.0611 C196.315,16.3261 196.363,16.8311 196.098,17.1441 L194.607,18.9241 Z" id="Fill-10" fill="#00CCCC"></path>
            <path d="M75.1571,12.1277 C72.0771,12.1277 69.5931,9.6437 69.5931,6.5637 C69.5931,3.4837 72.0771,0.9997 75.1571,0.9997 C78.2371,0.9997 80.7211,3.4837 80.7211,6.5637 C80.7211,9.6437 78.2371,12.1277 75.1571,12.1277 L75.1571,12.1277 Z M87.8751,28.0247 C87.8751,29.3407 86.8071,30.4097 85.4901,30.4097 C84.1741,30.4097 83.1051,29.3407 83.1051,28.0247 L83.1051,19.2817 L81.5161,19.2817 L81.5161,41.9347 C81.5161,43.4747 80.2741,44.7167 78.7341,44.7167 C77.1941,44.7167 75.9521,43.4747 75.9521,41.9347 L75.9521,30.4097 L74.3621,30.4097 L74.3621,41.9347 C74.3621,43.4747 73.1201,44.7167 71.5801,44.7167 C70.0401,44.7167 68.7981,43.4747 68.7981,41.9347 L68.7981,19.2817 L67.2091,19.2817 L67.2091,28.0247 C67.2091,29.3407 66.1401,30.4097 64.8241,30.4097 C63.5071,30.4097 62.4391,29.3407 62.4391,28.0247 L62.4391,17.6917 C62.4391,15.0587 64.5761,12.9227 67.2091,12.9227 L83.1051,12.9227 C85.7381,12.9227 87.8751,15.0587 87.8751,17.6917 L87.8751,28.0247 Z" id="Fill-11" fill="#00CCCC"></path>
        </g>
    </g>
</svg>